<?xml version="1.0" encoding="UTF-8"?>
<!DOCTYPE svg PUBLIC "-//W3C//DTD SVG 1.1//EN" "http://www.w3.org/Graphics/SVG/1.1/DTD/svg11.dtd">
<!-- Creator: CorelDRAW 2020 (64-Bit) -->
<svg xmlns="http://www.w3.org/2000/svg" xml:space="preserve" width="138mm" height="132mm" version="1.1" style="shape-rendering:geometricPrecision; text-rendering:geometricPrecision; image-rendering:optimizeQuality; fill-rule:evenodd; clip-rule:evenodd"
viewBox="0 0 13800 13200"
 xmlns:xlink="http://www.w3.org/1999/xlink"
 xmlns:xodm="http://www.corel.com/coreldraw/odm/2003">
 <defs>
  <style type="text/css">
   <![CDATA[
    .str0 {stroke:#FEFEFE;stroke-width:100;stroke-miterlimit:22.9256}
    .str3 {stroke:#ED3237;stroke-width:75;stroke-miterlimit:22.9256}
    .str2 {stroke:#FEFEFE;stroke-width:75;stroke-miterlimit:22.9256}
    .str1 {stroke:#FEFEFE;stroke-width:50;stroke-miterlimit:22.9256}
    .fil1 {fill:none}
    .fil3 {fill:#201E1E}
    .fil0 {fill:#282829}
    .fil4 {fill:#727376}
    .fil2 {fill:#ED3237}
    .fil7 {fill:white;fill-rule:nonzero}
    .fil6 {fill:#ED3237;fill-rule:nonzero}
    .fil5 {fill:#FEFEFE;fill-rule:nonzero}
   ]]>
  </style>
 </defs>
 <g id="Capa_x0020_1">
  <metadata id="CorelCorpID_0Corel-Layer"/>
  <g id="_1016029936">
   <path class="fil0 str0" d="M13726.33 696.13l-285.06 -280.13c-118.23,-116.18 -312.5,-116.99 -431.74,-1.8l-12086.94 11677c-119.23,115.19 -120.06,304.48 -1.84,420.66l285.06 280.13c118.23,116.18 312.5,116.99 431.73,1.8l12086.94 -11677c119.24,-115.19 120.07,-304.48 1.85,-420.66z"/>
   <polyline class="fil1 str1" points="3712.71,10780.74 2693.73,10371.86 3023.31,11446.76 1914.37,11124.79 2178.06,12263.34 1098.2,11913.28 1689.41,12735.41 "/>
   <path class="fil0 str0" d="M69.81 696.13l285.06 -280.13c118.23,-116.18 312.5,-116.99 431.74,-1.8l12086.94 11677c119.23,115.19 120.06,304.48 1.84,420.66l-285.06 280.13c-118.23,116.18 -312.5,116.99 -431.73,1.8l-12086.94 -11677c-119.24,-115.19 -120.07,-304.48 -1.85,-420.66z"/>
   <path class="fil2" d="M9463.04 2932.98c11.67,22.35 22.95,45.93 37.32,71.15 33.35,58.5 73.33,113.02 119.04,162.97 169.86,185.63 402.62,292.38 648.8,346.16 238.77,52.16 480.21,42.58 715.31,-22.01 116.99,-32.14 383.17,-147.92 462.27,-232.15l116.82 -124.38 778.94 167.51 5.17 229.41c21.29,945.93 -0.41,1892.78 -0.41,2838.88 0,157.62 0,315.23 0,472.85 0,254.23 9.52,304.6 -108.14,542.89 -886.82,1796.04 -2559.64,3426.8 -4348.24,4391.52 -241.82,130.44 -484.04,259.06 -730.76,380.58 -83.06,40.91 -149.75,76.81 -246.89,81.42 -148.67,7.04 -276.19,-77.02 -403.04,-140.07 -128.64,-63.95 -257.29,-128.18 -383.01,-197.49 -255.53,-140.88 -507.2,-288.48 -753.97,-443.51 -992.29,-623.37 -1921.05,-1376.17 -2650.07,-2285.98 -366.74,-457.7 -700.81,-917.83 -984.06,-1430.75 -244.96,-443.6 -295.89,-476.06 -295.91,-988.06l-0.06 -2147c-0.01,-361.54 -22.61,-724.99 1.99,-1086.07l13.44 -197.32 193.01 -61.15c85.44,-27.07 170.73,-42.34 257.57,-62.65 122.84,-28.71 235.74,-47.87 356.37,6.47 72.37,32.61 102.05,71.24 159.54,113.95 69.13,51.36 164.72,92.78 244.33,124.66 483.84,193.77 1084.3,110.68 1468.64,-244.23 172.5,-159.3 218.98,-323.31 243.76,-550.57l28.47 -260.99 4959.14 -4.91 76.76 491.1 17.87 57.77z"/>
   <path class="fil0 str2" d="M5773.38 7023.88c50.85,99.35 126.58,858.34 151.3,1042.94 20.88,155.9 246.22,709.57 318.17,877.36l142.29 7.13 14.57 203.56c67.08,21.59 377.18,56.89 456.16,59.62 136.14,4.69 328.26,-28.72 474.43,-37.81l32.39 -214.78 145.24 -15.94c71.43,-228.01 293.59,-696.4 326.18,-871.64 28.66,-154.1 137.88,-949.55 181.82,-1013.77 78.8,-88.68 380.91,-138.59 495.41,-226.74 30.03,-51.92 56.89,-1239.21 139.26,-1520 56.16,-191.47 356.36,-1183.13 365.14,-1296.9 -102.76,18.35 -546.93,291.2 -648.73,356.74 -170.03,109.5 -390.73,321.82 -494.51,506.24l-456.1 -77.8c-766.45,-96.68 -708.19,-39.16 -1455.82,55.74l-225.23 -280.62c-165.17,-191.82 -757.83,-577.55 -921.14,-629.95 50.16,384.05 391.69,1178.22 411.17,1616.94 13.87,312.52 23.65,633.64 43.1,949.13 32.39,525.54 93.54,243.42 504.9,510.55z"/>
   <path class="fil0 str2" d="M3809.96 4562.51c-2.87,231.42 1.1,676.29 -13.17,883.47l-905.86 361.63 25.57 169.76c-158.55,52.61 -573.2,272.09 -631.32,269.88 -62.92,-2.39 -70.86,-45.37 -145.76,-19.08 -60.15,21.11 -160.78,110.73 -234.11,138.08 18.51,55.14 92.35,166.49 129.83,228.95 38.6,64.34 102.74,157 132.83,221.73l127.24 -15.39c24.47,49.64 117.78,186.59 158.02,210.14 8.34,-64.28 6.59,-157.66 32.29,-203.56 55.22,-23.16 724.09,-70.15 816.31,-65.85l99.13 155.14 -529.09 597.86c-78.2,-14.44 -180.45,-84.03 -252.25,-112.53 59.55,107.02 122.93,100.89 122.03,200.95 -0.75,83.07 -36.28,56.95 149.25,190.58l473.05 -321.96c456.9,-304.33 572.73,-286.7 1127.18,-349.5 125.27,-14.19 111.24,-42.07 257.1,-284.24 43.18,-71.69 120.47,-180.04 169.26,-237.26l-198.43 629.92c312.4,407.86 515.75,552.26 820.51,1068.08 123.15,208.45 242.72,441.58 336.54,683.43 204.41,526.88 151.32,720.18 187.06,836.61l9.92 -17c0.81,-2 3.3,-6.6 4.21,-9.14 51.62,-144.35 -25.7,-677.85 -52.24,-807.48 -50.05,-244.46 -124.68,-504.93 -214.05,-730.59 -58.3,-147.22 -74.69,-183.97 -100.16,-358.8l-94.01 -610.92c-15.99,-109.49 -9.08,-88.51 -110.87,-132.04 -106.46,-45.54 -230.4,-104.65 -340.53,-144.28 -30.25,-281.52 -8.96,-1161.18 -70.16,-1353.22 -38.71,-121.46 -75.66,-116.92 -270.92,-223.21 -373.56,-203.36 -216.97,-159.8 -530.65,-444.99 -106.81,-97.1 -419.33,-449.14 -482.73,-484.6l-1.02 79.43z"/>
   <path class="fil3 str1" d="M4068.68 7315.52c67.62,71.11 294.43,135.37 595.51,488.33 407.71,477.96 578.85,731.83 867.49,1289.58l319.49 729.38c22.01,29.05 -3.08,3 25.1,25.53 46.85,-773.52 -643.55,-1752.25 -1138.34,-2315.43 -68.61,-78.09 -191.44,-196.99 -237.1,-268.88l-432.15 51.49z"/>
   <path class="fil4 str0" d="M9651.96 2850.21c34.19,59.54 67.72,120.46 119.25,176.79 141.51,154.64 339.34,241.35 543.9,286.04 206.55,45.13 414.53,36.43 617.86,-19.43 97.63,-26.82 298.56,-114.87 373.33,-180.51 148.64,-158.26 126.34,-216.63 327.23,-173.43l906.77 194.99 8.59 381.54c21.33,947.37 -0.37,1895.6 -0.37,2843.13 0,157.61 0,315.23 0,472.85 0,283.46 3.71,360.55 -127.79,626.87 -904.73,1832.33 -2606.41,3492.83 -4431.1,4477.03 -244.01,131.6 -488.42,261.35 -737.36,383.97 -368.01,181.27 -501.87,104.13 -829.98,-58.98 -131.2,-65.22 -262.35,-130.75 -390.56,-201.44 -258.87,-142.71 -513.82,-292.25 -763.8,-449.3 -1011.26,-635.29 -1956.13,-1402.43 -2699.04,-2329.58 -373.74,-466.42 -713.79,-935.47 -1002.43,-1458.17 -260.23,-471.23 -319.64,-532.43 -319.65,-1079.84l-0.07 -2147.01c-0.01,-366.19 -22.49,-732.99 2.43,-1098.9l22.35 -328.17 321 -101.7c90.97,-28.82 322.95,-72.01 415.23,-93.59 250.33,-58.51 354.7,43.68 540.28,181.54 53.57,39.8 137.99,74.95 199.37,99.53 411.49,164.8 928.97,96.59 1256.29,-205.66 135.57,-125.19 163.31,-251.5 182.82,-430.43l47.34 -434.07 5308.78 -5.25 100.37 642.24 8.96 28.94zm-463.16 186.3l-33.42 -108.02 -41.13 -263.19 -4431.9 4.39c-35.22,322.92 -122.4,534.79 -335.66,731.73 -443.61,409.64 -1160.64,553.98 -1788.85,302.39 -509.33,-203.98 -303.37,-295.01 -576.33,-231.2 -77.98,18.23 -156.68,31.64 -234.8,56.39 -22.94,336.79 -0.87,724.58 -1.33,1066.72l0.06 2147c0,436.91 10.69,397.96 260.12,849.65 286.79,519.34 603.02,948.43 956.36,1389.39 686.84,857.18 1576.78,1592.38 2576.21,2220.24 240.48,151.08 487.29,295.93 739.15,434.78 119.35,65.8 245.93,129.04 371.62,191.52 261.97,130.22 222.11,135.15 378.41,58.16 254.65,-125.43 477.32,-244.11 720.82,-375.45 1843.27,-994.21 3415.9,-2627.46 4223.27,-4262.6 95.01,-192.42 78.49,-186.03 78.49,-416.23 0,-157.62 0,-315.23 0,-472.85 0,-927.05 21.02,-1920.37 0.49,-2832.48l-380.01 -81.72c-100.73,107.25 -382.37,255.73 -602.09,316.09 -274.57,75.43 -566.18,90.58 -862.26,25.9 -816.39,-178.36 -996.51,-736.24 -1017.22,-750.61z"/>
   <path class="fil0 str2" d="M9996.79 4562.51c2.88,231.42 -1.09,676.29 13.17,883.47l905.87 361.63 -25.57 169.76c158.55,52.61 573.2,272.09 631.32,269.88 62.91,-2.39 70.86,-45.37 145.76,-19.08 60.14,21.11 160.78,110.73 234.1,138.08 -18.5,55.14 -92.34,166.49 -129.82,228.95 -38.61,64.34 -102.74,157 -132.84,221.73l-127.23 -15.39c-24.48,49.64 -117.78,186.59 -158.02,210.14 -8.34,-64.28 -6.59,-157.66 -32.3,-203.56 -55.21,-23.16 -724.08,-70.15 -816.3,-65.85l-99.13 155.14 529.09 597.86c78.19,-14.44 180.44,-84.03 252.25,-112.53 -59.56,107.02 -122.94,100.89 -122.04,200.95 0.75,83.07 36.29,56.95 -149.24,190.58l-473.05 -321.96c-456.9,-304.33 -604.57,-290.27 -1159.02,-353.08 -125.27,-14.18 -79.4,-38.49 -225.27,-280.66 -43.17,-71.69 -120.46,-180.04 -169.25,-237.26l178.46 605.39c-312.41,407.86 -495.78,576.79 -800.54,1092.61 -123.15,208.45 -242.72,441.58 -336.55,683.43 -204.4,526.88 -151.31,720.18 -187.05,836.61l-9.92 -17c-0.81,-2 -3.31,-6.6 -4.21,-9.14 -51.62,-144.35 25.7,-677.85 52.24,-807.48 50.05,-244.46 124.68,-504.93 214.04,-730.59 58.3,-147.22 74.7,-183.97 100.17,-358.8l94 -610.92c16,-109.49 9.09,-88.51 110.87,-132.04 106.46,-45.54 230.41,-104.65 340.54,-144.28 30.25,-281.52 8.95,-1161.18 70.16,-1353.22 38.71,-121.46 75.66,-116.92 270.92,-223.21 373.56,-203.36 216.96,-159.8 530.65,-444.99 106.8,-97.1 419.33,-449.14 482.73,-484.6l1.01 79.43z"/>
   <path class="fil3 str1" d="M9738.07 7322.71c-67.61,71.11 -294.43,135.37 -595.51,488.33 -407.71,477.96 -578.84,731.83 -867.49,1289.58l-319.49 729.38c-22,29.05 3.08,3 -25.09,25.53 -46.86,-773.52 643.55,-1752.25 1138.34,-2315.43 68.61,-78.09 191.44,-196.99 237.1,-268.88l432.14 51.49z"/>
   <path class="fil2 str0" d="M1536.18 7948.4l24.92 -15.44 92.28 -57.79 91.48 -57.53 563.01 -352.36c0,0 59.5,139.89 179.43,357.55 16.63,29.84 34.57,61.48 53.25,94.15 17.5,30.15 35.73,61 55.12,93.43 229.27,383.36 597.86,908.02 1117.64,1372.49 956.47,854.77 2203.68,1322.1 2576.22,1846.73l-145.44 214.19 -428.5 632.89c0,0 -73.54,-72.72 -204.56,-189.5 -264.19,-235.4 -766.9,-651.44 -1406.04,-1031.1 -956.87,-567.76 -2604.78,-2136.7 -2568.81,-2907.71z"/>
   <path class="fil2 str0" d="M12398.24 7948.4l-24.93 -15.44 -92.28 -57.79 -91.47 -57.53 -563.02 -352.36c0,0 -59.49,139.89 -179.43,357.55 -16.63,29.84 -34.56,61.48 -53.24,94.15 -17.5,30.15 -35.74,61 -55.12,93.43 -229.27,383.36 -597.87,908.02 -1117.65,1372.49 -956.46,854.77 -2203.68,1322.1 -2576.22,1846.73l145.45 214.19 428.5 632.89c0,0 73.53,-72.72 204.55,-189.5 264.2,-235.4 766.91,-651.44 1406.05,-1031.1 956.87,-567.76 2604.78,-2136.7 2568.81,-2907.71z"/>
   <path class="fil5" d="M9232.85 10288.18c33.04,-21.33 69.07,-28.35 108.13,-20.73 38.91,7.89 69.41,27.95 91.23,60.02l28.02 41.2 -96.03 62.01 -28.02 -41.19c-4.33,-6.37 -10.35,-10.26 -18.18,-12.12 -7.83,-1.34 -14.97,0.16 -21.5,4.38l-60.28 38.93c-6.53,4.22 -10.61,9.96 -12.52,17.59 -1.29,7.75 0.16,14.59 4.49,20.96l207.05 304.36c4.33,6.36 10.3,10.45 18.05,12.19 7.96,1.26 15.05,-0.04 21.59,-4.26l60.28 -38.93c6.53,-4.22 10.65,-10.17 12.43,-17.71 1.38,-7.63 -0.04,-14.67 -4.37,-21.03l-27.94 -41.08 96.03 -62.02 27.94 41.08c21.89,32.19 28.82,67.13 21.04,105 -7.94,38.15 -28.45,67.99 -61.48,89.33l-60.28 38.93c-32.92,21.25 -68.99,27.95 -107.89,20.06 -39.19,-7.54 -69.54,-27.36 -91.43,-59.55l-207.04 -304.36c-21.82,-32.06 -28.9,-67.26 -20.84,-105.48 7.78,-37.87 28.33,-67.39 61.24,-88.64l60.28 -38.94zm492.52 -318.86l64.58 92.96 -71.77 47.34 242.16 348.55 71.76 -47.33 -48.33 -69.57 95.4 -62.92 112.91 162.52 -333.97 220.28 -64.58 -92.96 71.28 -47.01 -242.16 -348.56 -71.28 47.02 -64.58 -92.96 238.58 -157.36zm401.38 -282.84l70.85 88.52 -45.37 34.47 248 309.88c4.82,6.02 11.22,9.56 19.32,10.54 7.79,0.83 14.77,-1 21.18,-5.87l67.99 -51.66c6.42,-4.87 10.05,-11.11 11,-18.59 1.01,-7.89 -0.96,-14.8 -5.78,-20.82l-248 -309.87 -45.37 34.47 -70.85 -88.52 204.33 -155.25 70.84 88.52 -67.99 51.66 248 309.87c24.37,30.46 33.91,64.87 28.92,103.39 -4.79,38.54 -22.77,69.74 -54.25,93.66l-68 51.66c-31.13,23.66 -66.68,33.13 -106.33,28.35 -39.67,-4.58 -71.6,-21.98 -95.98,-52.43l-248 -309.87 -67.87 51.57 -70.85 -88.52 204.21 -155.16zm767.3 -385.31c27.58,27.53 41.19,60.9 40.72,99.83l-0.26 20.98 21.75 0.46c39.84,0.36 73.66,14.3 101.55,42.13l48.98 48.87c27.7,27.63 41.09,60.8 40.52,99.62 -0.37,38.82 -14.68,71.77 -43.25,98.95l-216.27 205.78 -80.49 -80.3 61.58 -58.6 -301.82 -301.13 -61.57 58.59 -80.5 -80.31 216.28 -205.78c28.56,-27.19 62.5,-40.55 102.24,-40.09 39.94,0.46 73.87,14.51 101.46,42.03l49.08 48.97zm59.85 220.38c-5.68,-5.66 -12.55,-8.39 -20.5,-8.28 -7.95,-0.29 -14.88,2.28 -20.7,7.81l-72.16 68.66 110.87 110.62 72.16 -68.66c5.82,-5.53 8.72,-12.13 8.82,-19.66 0.1,-7.95 -2.55,-14.71 -8.02,-20.17l-70.47 -70.32zm-191.36 -190.92c-5.48,-5.46 -12.24,-8.09 -20.5,-8.29 -7.74,-0.09 -14.47,2.69 -20.29,8.22l-72.16 68.67 110.46 110.21 72.16 -68.67c5.82,-5.53 8.83,-12.02 8.81,-19.66 0.1,-7.95 -2.43,-14.6 -7.91,-20.07l-70.57 -70.41z"/>
   <path class="fil5" d="M2729.4 8532.62l-86.65 70.54 54.18 63.19 -303.35 246.94c-5.89,4.8 -12.77,6.91 -20.55,6.43 -7.75,-0.88 -14.13,-4.14 -19.06,-9.89l-18.21 -21.24c-4.93,-5.74 -7,-12.34 -6.6,-20.03 0.9,-7.55 4.34,-13.66 10.24,-18.46l38.05 -30.97 -72.4 -84.43 -38.05 30.97c-29.81,24.27 -46.34,55.21 -49.63,93.23 -3.68,37.78 6.92,71.29 31.73,100.23l18.22 21.24c24.91,29.05 56.96,45.28 95.96,48.69 38.7,3.28 72.89,-7.07 102.7,-31.33l303.34 -246.95 54.47 63.52 86.65 -70.54 -181.04 -211.14zm462.06 520.18l-83.02 74.58 -38.22 -40.39 -290.61 261.07c-5.65,5.08 -8.68,11.45 -9.01,19.23 -0.21,7.49 2.19,13.99 7.59,19.7l57.28 60.53c5.41,5.71 11.95,8.67 19.53,8.97 7.99,0.31 14.76,-2.11 20.41,-7.19l290.61 -261.07 -38.22 -40.4 83.01 -74.58 172.15 181.93 -83.02 74.58 -57.28 -60.54 -290.61 261.07c-28.56,25.66 -62.3,37.52 -101.31,35.88 -39.02,-1.45 -71.76,-16.04 -98.28,-44.07l-57.29 -60.53c-26.23,-27.73 -38.6,-60.81 -37.01,-98.92 1.38,-38.13 16.25,-69.92 44.81,-95.58l290.61 -261.08 -57.18 -60.43 83.01 -74.57 172.05 181.81zm465.93 454.37c28.47,25.75 43.53,57.49 45.19,95.61 1.24,37.93 -11.35,70.86 -37.68,98.5l-38.46 40.37 -82.87 -74.95 38.46 -40.37c5.23,-5.48 7.76,-11.87 7.77,-19.57 -0.5,-7.58 -3.6,-13.86 -9.23,-18.95l-62.26 -56.31c-5.63,-5.09 -12.19,-7.55 -20.08,-7.57 -7.88,0.59 -14.23,3.52 -19.45,9l-249.9 262.3c-5.23,5.49 -7.85,11.97 -7.77,19.57 0.6,7.67 3.51,13.96 9.14,19.05l62.26 56.31c5.63,5.1 12.38,7.55 20.18,7.47 7.78,-0.49 14.22,-3.52 19.45,-9l86.68 -90.99 -53.43 -48.33 76.82 -80.64 136.3 123.29 -163.51 171.62c-26.43,27.74 -59,42.21 -97.82,43.71 -39.23,1.32 -73.03,-10.74 -101.49,-36.49l-62.26 -56.31c-28.36,-25.65 -43.22,-57.6 -44.47,-95.53 -1.66,-38.11 10.74,-70.84 37.16,-98.58l249.9 -262.3c26.33,-27.64 59.1,-42.32 98.34,-43.64 38.81,-1.5 72.41,10.77 100.78,36.43l62.25 56.3zm400.95 340.45c29.91,24.15 46.77,55.01 50.63,92.97 3.43,37.81 -7.25,71.38 -31.94,100.41l-36.08 42.41 -87.05 -70.29 36.08 -42.41c4.9,-5.77 7.05,-12.28 6.62,-19.97 -0.93,-7.53 -4.39,-13.64 -10.31,-18.41l-65.4 -52.82c-5.91,-4.77 -12.6,-6.87 -20.49,-6.46 -7.83,1.02 -14,4.29 -18.9,10.05l-234.39 275.56c-4.9,5.76 -7.15,12.38 -6.63,19.96 1.05,7.63 4.31,13.76 10.23,18.53l65.4 52.82c5.91,4.77 12.8,6.85 20.58,6.34 7.74,-0.91 14,-4.29 18.9,-10.05l81.31 -95.58 -56.14 -45.34 72.05 -84.71 143.19 115.63 -153.36 180.3c-24.79,29.14 -56.48,45.37 -95.15,49 -39.09,3.46 -73.53,-6.73 -103.44,-30.89l-65.4 -52.81c-29.79,-24.06 -46.47,-55.14 -49.9,-92.94 -3.86,-37.97 6.63,-71.32 31.42,-100.47l234.39 -275.55c24.7,-29.03 56.57,-45.48 95.67,-48.95 38.66,-3.63 72.92,6.79 102.71,30.85l65.4 52.82zm557.64 417.95l-117.8 154.37 -90.61 -65.65 50.42 -66.08 -68.16 -49.38 -92.46 121.16 113.41 82.16 -67.38 88.29 -113.41 -82.16 -92.8 121.61 68.16 49.38 50.42 -66.08 90.62 65.65 -117.8 154.37 -317.21 -229.81 67.38 -88.29 67.7 49.05 252.64 -331.07 -67.7 -49.04 67.37 -88.29 317.21 229.81zm388.96 491.63c-35.46,52.49 -76.54,81.43 -123.22,86.83l-57.18 186.86 43.7 28.04 -62.08 91.89 -164.66 -105.61 62.08 -91.9 26.64 17.09 53.56 -147.09 -77.61 -49.77 -85.52 126.58 23.73 15.22 -62.09 91.89 -188.63 -120.99 62.09 -91.89 70.46 45.19 232.82 -344.59 -70.47 -45.19 62.09 -91.9 247.47 158.74c32.69,20.96 52.92,49.84 60.79,87.01 7.9,37.36 1.19,71.95 -20.09,103.45l-33.88 50.14zm-236.68 -75.56l82.57 52.96c6.66,4.27 13.67,5.72 21.17,4.11 7.83,-1.57 13.84,-5.33 18.07,-11.58l54.43 -80.57c4.23,-6.25 5.39,-13.11 3.86,-20.86 -1.53,-7.24 -5.67,-12.94 -12.32,-17.21l-82.58 -52.96 -85.2 126.11z"/>
   <path class="fil0" d="M3286.09 1575.21l0 -629.14 -405.01 0 0 -620.93 1241.6 0 0 620.93 -405.36 0 0 629.14 202.16 0 0 423.97 -836.59 0 0 -423.97 203.2 0zm1638.73 -826.11l0 826.11 203.2 0 0 423.97 -836.24 0 0 -423.97 201.8 0 0 -826.11 -201.8 0 0 -423.96 836.24 0 0 423.96 -203.2 0zm777.3 826.11l0 -629.14 -405 0 0 -620.93 1241.59 0 0 620.93 -405.35 0 0 629.14 202.15 0 0 423.97 -836.59 0 0 -423.97 203.2 0zm1055.93 0l183.73 -826.11 -109.15 0 0 -423.96 776.57 0 279.48 1250.07 175.49 0 0 423.97 -701.36 0 0 -423.97 64.63 0 -7.33 -36.2 -194.35 0 -7.26 36.2 64.44 0 0 423.97 -701.01 0 0 -423.97 176.12 0zm2223.85 -984.32l0 -265.75 836.24 0 0 423.96 -202.15 0 0 826.11 202.15 0 0 423.97 -1584.87 0 0 -423.97 201.8 0 0 -826.11 -201.8 0 0 -423.96 599.77 0 148.86 265.75zm203.2 362.76l0 -204.55 -114.58 0 114.58 204.55zm-203.2 621.56l97.49 0 -213.08 -343.39 0 343.39 115.59 0zm1579.21 0l0 -201.75 -156.44 0c-113.08,0 -212.59,-39.8 -293.63,-118.76 -80.98,-78.91 -123.8,-176.84 -123.8,-290.02l0 -230.76c0,-113.19 42.82,-211.12 123.8,-290.02 81.04,-78.96 180.55,-118.76 293.63,-118.76l169.55 0c113.47,0 213.78,39.39 295.09,118.83 80.64,78.77 122.69,177.22 122.69,289.95l0 212.15 -430.89 0 0 -196.97 -142.98 0 0 200.4 156.09 0c113.71,0 214.04,40.25 295.24,119.99 80.56,79.12 122.54,177.18 122.54,290.14l0 230.42c0,112.83 -42.05,210.5 -122.69,289.28 -81.33,79.45 -181.42,119.85 -295.09,119.85l-169.55 0c-113.29,0 -212.57,-40.8 -293.63,-119.78 -80.99,-78.91 -123.8,-176.06 -123.8,-289.35l0 -211.81 430.89 0 0 196.97 142.98 0zm-3250.29 -460.5l24.36 0 -12.1 -60.78 -12.26 60.78z"/>
   <path class="fil6" d="M3839.1 1918.79l0 -263.19 -202.16 0 0 -986.89 134.88 0 0 196.97 270.47 0 0 -460.16 -1080.82 0 0 460.16 270.12 0 0 -196.97 134.89 0 0 986.89 -203.2 0 0 263.19 675.82 0zm1208.53 -1513.27l0 263.19 -203.2 0 0 986.89 203.2 0 0 263.19 -675.47 0 0 -263.19 201.81 0 0 -986.89 -201.81 0 0 -263.19 675.47 0zm1207.49 1513.27l0 -263.19 -202.15 0 0 -986.89 134.88 0 0 196.97 270.47 0 0 -460.16 -1080.82 0 0 460.16 270.12 0 0 -196.97 134.89 0 0 986.89 -203.2 0 0 263.19 675.81 0zm947.44 0l0 -263.19 -82.18 0 39.53 -196.97 325.94 0 39.88 196.97 -82.53 0 0 263.19 540.58 0 0 -263.19 -159.5 0 -279.48 -1250.08 -631.78 0 0 263.19 128.99 0 -219.49 986.89 -160.2 0 0 263.19 540.24 0zm10.05 -723.69l110.96 -550.37 109.57 550.37 -220.53 0zm1573.32 -789.58l479.55 856.13 0 -592.94 -203.19 0 0 -263.19 675.47 0 0 263.19 -202.16 0 0 986.89 202.16 0 0 263.19 -675.47 0 0 -263.19 161.58 0 -437.94 -705.79 0 705.79 203.19 0 0 263.19 -675.47 0 0 -263.19 201.81 0 0 -986.89 -201.81 0 0 -263.19 472.28 0zm1788.3 624.36c92.93,0 172.68,32.44 238.9,96.97 65.54,64.87 98.48,142.24 98.48,232.78l0 230.42c0,90.55 -32.94,167.58 -98.48,231.78 -66.22,64.52 -145.97,96.96 -238.9,96.96l-169.56 0c-92.59,0 -171.99,-32.44 -237.53,-96.96 -66.58,-64.2 -99.51,-141.23 -99.51,-231.78l0 -131.42 270.11 0 0 131.42c0,17.91 6.24,33.45 19.08,46.63 13.86,12.5 29.47,18.92 47.85,18.92l169.56 0c18.37,0 34.32,-6.42 47.85,-18.92 12.83,-13.18 19.42,-28.72 19.42,-46.63l0 -230.42c0,-18.58 -6.59,-34.12 -19.42,-46.62 -13.53,-13.18 -29.48,-19.94 -47.85,-19.94l-169.56 0c-92.59,0 -171.99,-31.75 -237.53,-95.95 -66.58,-64.53 -99.51,-142.23 -99.51,-232.44l0 -230.76c0,-90.21 32.93,-167.92 99.51,-232.45 65.54,-64.19 144.94,-95.95 237.53,-95.95l169.56 0c92.93,0 172.68,31.76 238.9,95.95 65.54,64.53 98.48,142.24 98.48,232.45l0 131.76 -270.11 0 0 -131.76c0,-17.91 -6.59,-33.11 -19.42,-46.63 -13.53,-12.5 -29.48,-18.58 -47.85,-18.58l-169.56 0c-18.38,0 -33.99,6.08 -47.85,18.58 -12.84,13.52 -19.08,28.72 -19.08,46.63l0 230.76c0,17.9 6.24,33.11 19.08,46.28 13.86,12.84 29.47,18.92 47.85,18.92l169.56 0z"/>
   <path class="fil3" d="M12136.8 7378.5c58.11,0 105.21,47.04 105.21,105.07 0,58.03 -47.1,105.07 -105.21,105.07 -58.1,0 -105.2,-47.04 -105.2,-105.07 0,-58.03 47.1,-105.07 105.2,-105.07z"/>
   <path class="fil3" d="M12303.62 6386.96c58.1,0 105.2,47.04 105.2,105.07 0,58.03 -47.1,105.07 -105.2,105.07 -58.1,0 -105.21,-47.04 -105.21,-105.07 0,-58.03 47.11,-105.07 105.21,-105.07z"/>
   <path class="fil3" d="M12305.13 5366.73c58.1,0 105.2,47.05 105.2,105.08 0,58.03 -47.1,105.07 -105.2,105.07 -58.1,0 -105.21,-47.04 -105.21,-105.07 0,-58.03 47.11,-105.08 105.21,-105.08z"/>
   <path class="fil3" d="M12315.63 4269.88c58.11,0 105.21,47.05 105.21,105.08 0,58.03 -47.1,105.07 -105.21,105.07 -58.1,0 -105.2,-47.04 -105.2,-105.07 0,-58.03 47.1,-105.08 105.2,-105.08z"/>
   <path class="fil3" d="M12283.98 3211.4c58.1,0 105.2,47.04 105.2,105.07 0,58.03 -47.1,105.07 -105.2,105.07 -58.11,0 -105.21,-47.04 -105.21,-105.07 0,-58.03 47.1,-105.07 105.21,-105.07z"/>
   <path class="fil3" d="M11337.12 3242.08c58.1,0 105.2,47.04 105.2,105.07 0,58.03 -47.1,105.07 -105.2,105.07 -58.11,0 -105.21,-47.04 -105.21,-105.07 0,-58.03 47.1,-105.07 105.21,-105.07z"/>
   <path class="fil3" d="M10261.31 3456.08c58.1,0 105.21,47.04 105.21,105.08 0,58.03 -47.11,105.07 -105.21,105.07 -58.1,0 -105.2,-47.04 -105.2,-105.07 0,-58.04 47.1,-105.08 105.2,-105.08z"/>
   <path class="fil3" d="M9447.21 2858.54c58.1,0 105.21,47.04 105.21,105.07 0,58.03 -47.11,105.07 -105.21,105.07 -58.1,0 -105.21,-47.04 -105.21,-105.07 0,-58.03 47.11,-105.07 105.21,-105.07z"/>
   <path class="fil3" d="M8334.43 2319.99c58.1,0 105.21,47.04 105.21,105.07 0,58.03 -47.11,105.07 -105.21,105.07 -58.1,0 -105.2,-47.04 -105.2,-105.07 0,-58.03 47.1,-105.07 105.2,-105.07z"/>
   <path class="fil3" d="M1682.56 7386.25c-58.1,0 -105.2,47.04 -105.2,105.07 0,58.03 47.1,105.07 105.2,105.07 58.1,0 105.21,-47.04 105.21,-105.07 0,-58.03 -47.11,-105.07 -105.21,-105.07z"/>
   <path class="fil3" d="M1515.75 6394.7c-58.11,0 -105.21,47.05 -105.21,105.08 0,58.03 47.1,105.07 105.21,105.07 58.1,0 105.2,-47.04 105.2,-105.07 0,-58.03 -47.1,-105.08 -105.2,-105.08z"/>
   <path class="fil3" d="M1514.24 5374.48c-58.11,0 -105.21,47.04 -105.21,105.07 0,58.03 47.1,105.08 105.21,105.08 58.1,0 105.2,-47.05 105.2,-105.08 0,-58.03 -47.1,-105.07 -105.2,-105.07z"/>
   <path class="fil3" d="M1503.73 4277.63c-58.1,0 -105.21,47.04 -105.21,105.07 0,58.03 47.11,105.08 105.21,105.08 58.1,0 105.21,-47.05 105.21,-105.08 0,-58.03 -47.11,-105.07 -105.21,-105.07z"/>
   <path class="fil3" d="M1535.39 3219.14c-58.1,0 -105.21,47.05 -105.21,105.08 0,58.03 47.11,105.07 105.21,105.07 58.1,0 105.21,-47.04 105.21,-105.07 0,-58.03 -47.11,-105.08 -105.21,-105.08z"/>
   <path class="fil3" d="M2482.25 3249.83c-58.1,0 -105.21,47.04 -105.21,105.07 0,58.03 47.11,105.07 105.21,105.07 58.1,0 105.2,-47.04 105.2,-105.07 0,-58.03 -47.1,-105.07 -105.2,-105.07z"/>
   <path class="fil3" d="M3558.05 3463.83c-58.1,0 -105.2,47.04 -105.2,105.07 0,58.03 47.1,105.08 105.2,105.08 58.1,0 105.21,-47.05 105.21,-105.08 0,-58.03 -47.11,-105.07 -105.21,-105.07z"/>
   <path class="fil3" d="M4372.15 2866.29c-58.1,0 -105.2,47.04 -105.2,105.07 0,58.03 47.1,105.07 105.2,105.07 58.11,0 105.21,-47.04 105.21,-105.07 0,-58.03 -47.1,-105.07 -105.21,-105.07z"/>
   <path class="fil3" d="M5484.93 2327.74c-58.1,0 -105.2,47.04 -105.2,105.07 0,58.03 47.1,105.07 105.2,105.07 58.11,0 105.21,-47.04 105.21,-105.07 0,-58.03 -47.1,-105.07 -105.21,-105.07z"/>
   <path class="fil3" d="M6869.85 2327.74c-58.11,0 -105.21,47.04 -105.21,105.07 0,58.03 47.1,105.07 105.21,105.07 58.1,0 105.2,-47.04 105.2,-105.07 0,-58.03 -47.1,-105.07 -105.2,-105.07z"/>
   <polyline class="fil1 str1" points="10146.45,10780.74 11165.42,10371.86 10835.85,11446.76 11944.79,11124.79 11681.1,12263.34 12760.95,11913.28 12169.74,12735.41 "/>
   <path class="fil2" d="M10252.73 5788.05c-68.22,57.98 -127.35,119.25 -173.06,208.87l623.26 -28.94 -450.2 -179.93z"/>
   <path class="fil2" d="M3508.37 5788.05c61.31,52.1 114.46,107.16 155.53,187.69l-560.07 -26 404.54 -161.69z"/>
   <path class="fil2 str3" d="M6294.5 5884.81c-56.45,-12.77 -517.52,-285.2 -542.1,-328.74l544.7 11.16 -2.6 317.58zm1162.51 -307.42l551.47 8.73c-41.22,37.75 -504.24,301.82 -560.08,311.54l8.61 -320.27z"/>
   <path class="fil7" d="M11396.99 811.94l0 -70.23 -52.55 0 0 -263.3 35.06 0 0 52.55 70.31 0 0 -122.78 -280.98 0 0 122.78 70.23 0 0 -52.55 35.07 0 0 263.3 -52.83 0 0 70.23 175.69 0zm202.02 -403.76l71.03 166.32 71.04 -166.32 123.04 0 0 70.23 -52.83 0 0 263.3 52.83 0 0 70.23 -175.6 0 0 -70.23 52.56 0 0 -169.83 -69.96 163.17 -72.11 -165.6 0 172.26 52.82 0 0 70.23 -175.61 0 0 -70.23 52.48 0 0 -263.3 -52.48 0 0 -70.23 122.79 0z"/>
   <polygon class="fil2" points="6930.25,6859.91 6930.25,6859.91 6531.65,6307.86 7298.3,6302.29 "/>
   <path class="fil2 str2" d="M6012.14 7060.79l290.54 1.64 158.09 415.8c33.81,-45.48 85.75,-293.43 105.55,-370.3l526.01 5.2 78.32 358.61c61.97,-45.07 137.77,-312.26 193.64,-391.57l278.07 -3.39c-3.79,110.53 -220.03,1220.92 -308.87,1366.44 -40.77,66.8 -59.58,99.16 -161.73,101.09l-55.08 -253.19c-25.26,29.54 -12.82,4.71 -30.53,55l-56.81 235.16 -431.76 -0.09c-41.66,-90.39 -34.57,-227.18 -79.63,-294.74l-71.63 251.88c-228.89,-5.74 -251.04,-460.25 -290.27,-662.53 -44.57,-229.8 -130.56,-591.34 -143.91,-815.01z"/>
   <path class="fil2 str0" d="M6925.71 12840.35c0,0 629.88,113.95 1333.12,-571.19l-77.42 -144.17c-129.15,94.08 -201.81,152.81 -204.37,154.41l-103.92 84.83 -63.05 -116.9 -354.83 -659.9c-128.34,76.34 -301.69,139.43 -529.75,139.43 -228.05,0 -401.42,-63.07 -529.74,-139.43l-354.88 659.9 -63 116.9 -104.07 -84.83c-2.17,-1.85 -74.95,-60.79 -204.24,-154.41l-77.4 144.17c703.65,685.14 1333.55,571.19 1333.55,571.19z"/>
   <path class="fil5" d="M6512.68 12359.5c-30.65,0 -56.94,10.63 -78.64,31.88 -22.03,21.36 -32.94,46.97 -32.94,76.95l0 163.51 245.76 0 0 -87.13 -156.34 0 0 -76.38c0,-5.93 2.07,-11.08 6.31,-15.44 4.6,-4.14 9.76,-6.15 15.85,-6.15l22.49 0c30.76,0 57.16,-10.74 79.09,-32.1 21.69,-21.25 32.6,-46.86 32.6,-77.06l0 -97.97c0,-29.86 -10.91,-55.59 -32.6,-76.95 -21.93,-21.25 -48.33,-31.76 -79.09,-31.76l-22.49 0c-30.65,0 -56.94,10.51 -78.64,31.76 -22.03,21.36 -32.94,47.09 -32.94,76.95l0 43.62 89.42 0 0 -43.62c0,-5.93 2.07,-10.96 6.31,-15.43 4.6,-4.15 9.76,-6.16 15.85,-6.16l22.49 0c6.09,0 11.36,2.01 15.84,6.16 4.25,4.47 6.43,9.5 6.43,15.43l0 97.97c0,6.15 -2.18,11.3 -6.43,15.44 -4.48,4.36 -9.75,6.48 -15.84,6.48l-22.49 0zm257.34 163.52c0,5.92 2.07,11.07 6.32,15.43 4.59,4.14 9.76,6.26 15.84,6.26l22.5 0c6.08,0 11.36,-2.12 15.84,-6.26 4.24,-4.36 6.42,-9.51 6.42,-15.43l0 -283.41c0,-5.93 -2.18,-10.96 -6.42,-15.43 -4.48,-4.15 -9.76,-6.16 -15.84,-6.16l-22.5 0c-6.08,0 -11.25,2.01 -15.84,6.16 -4.25,4.47 -6.32,9.5 -6.32,15.43l0 283.41zm22.16 108.82c-30.65,0 -56.94,-10.74 -78.63,-32.1 -22.04,-21.25 -32.95,-46.75 -32.95,-76.72l0 -283.41c0,-29.86 10.91,-55.59 32.95,-76.95 21.69,-21.25 47.98,-31.76 78.63,-31.76l22.5 0c30.76,0 57.16,10.51 79.08,31.76 21.7,21.36 32.6,47.09 32.6,76.95l0 283.41c0,29.97 -10.9,55.47 -32.6,76.72 -21.92,21.36 -48.32,32.1 -79.08,32.1l-22.5 0zm324.27 -500.94l0 413.81 67.26 0 0 87.13 -223.6 0 0 -87.13 66.8 0 0 -326.69 -66.8 0 0 -87.12 156.34 0zm346.65 392.12c0,29.97 -10.9,55.47 -32.6,76.72 -21.92,21.36 -48.32,32.1 -79.08,32.1l-22.5 0c-30.65,0 -56.94,-10.74 -78.63,-32.1 -22.04,-21.25 -32.95,-46.75 -32.95,-76.72l0 -53.02c0,-30.19 10.8,-55.81 32.61,-77.06l12.05 -11.74 -12.05 -11.52c-21.81,-21.36 -32.61,-47.08 -32.61,-76.95l0 -53.12c0,-29.86 10.91,-55.59 32.95,-76.95 21.69,-21.25 47.98,-31.76 78.63,-31.76l22.5 0c30.76,0 57.16,10.51 79.08,31.76 21.7,21.36 32.6,47.09 32.6,76.95l0 53.12c0,29.87 -10.9,55.59 -32.6,76.95l-12.16 11.52 12.16 11.74c21.7,21.25 32.6,46.87 32.6,77.06l0 53.02zm-89.41 -76.28c0,-6.15 -2.19,-11.3 -6.43,-15.43 -4.48,-4.37 -9.76,-6.6 -15.84,-6.6l-22.5 0c-6.08,0 -11.25,2.23 -15.84,6.6 -4.25,4.13 -6.32,9.28 -6.32,15.43l0 76.28c0,5.92 2.07,11.07 6.32,15.43 4.59,4.14 9.76,6.26 15.84,6.26l22.5 0c6.08,0 11.36,-2.12 15.84,-6.26 4.24,-4.36 6.43,-9.51 6.43,-15.43l0 -76.28zm-22.27 -109.16c6.08,0 11.36,-2.01 15.84,-6.26 4.24,-4.36 6.43,-9.39 6.43,-15.32l0 -76.39c0,-5.93 -2.19,-10.96 -6.43,-15.43 -4.48,-4.15 -9.76,-6.16 -15.84,-6.16l-22.5 0c-6.08,0 -11.25,2.01 -15.84,6.16 -4.25,4.47 -6.32,9.5 -6.32,15.43l0 76.39c0,5.93 2.07,10.96 6.32,15.32 4.59,4.25 9.76,6.26 15.84,6.26l22.5 0z"/>
   <path class="fil5" d="M6412.72 12008.96l31.06 -2.47c1.44,11.15 4.88,20.3 10.29,27.48 5.4,7.13 13.78,12.92 25.14,17.37 11.34,4.39 24.13,6.61 38.32,6.61 12.63,0 23.74,-1.66 33.39,-5.02 9.65,-3.35 16.81,-7.95 21.52,-13.78 4.71,-5.85 7.1,-12.2 7.1,-19.02 0,-6.93 -2.28,-12.97 -6.81,-18.19 -4.53,-5.17 -12.04,-9.5 -22.51,-13.07 -6.69,-2.28 -21.51,-5.9 -44.49,-10.8 -22.97,-4.91 -39.04,-9.5 -48.22,-13.85 -11.93,-5.57 -20.78,-12.49 -26.59,-20.72 -5.87,-8.21 -8.79,-17.46 -8.79,-27.64 0,-11.27 3.62,-21.75 10.77,-31.46 7.15,-9.77 17.55,-17.16 31.35,-22.22 13.73,-5.07 29.03,-7.6 45.83,-7.6 18.51,0 34.85,2.64 48.98,7.97 14.13,5.27 25.01,13.07 32.63,23.4 7.63,10.28 11.71,21.96 12.28,34.97l-31.76 2.18c-1.69,-14.01 -7.44,-24.6 -17.28,-31.73 -9.83,-7.18 -24.36,-10.74 -43.56,-10.74 -20,0 -34.62,3.26 -43.75,9.76 -9.13,6.51 -13.72,14.37 -13.72,23.56 0,7.96 3.25,14.53 9.71,19.69 6.4,5.11 22.98,10.44 49.86,15.81 26.87,5.43 45.3,10.12 55.3,14.15 14.5,5.95 25.26,13.44 32.18,22.58 6.92,9.09 10.35,19.59 10.35,31.46 0,11.84 -3.78,22.9 -11.41,33.34 -7.62,10.43 -18.49,18.54 -32.73,24.33 -14.26,5.79 -30.26,8.68 -48.12,8.68 -22.57,0 -41.47,-2.95 -56.71,-8.78 -15.3,-5.84 -27.22,-14.63 -35.89,-26.41 -8.72,-11.73 -13.25,-25.01 -13.72,-39.84zm249.19 71.31l0 -221.96 33.15 0 0 221.96 -33.15 0zm91.03 0l0 -221.96 33.97 0 131.1 174.22 0 -174.22 31.77 0 0 221.96 -33.98 0 -131.11 -174.22 0 174.22 -31.75 0zm430.38 -77.86l33.15 7.43c-6.92,24.13 -19.37,42.47 -37.34,55.13 -17.98,12.66 -39.96,19.02 -65.96,19.02 -26.87,0 -48.75,-4.86 -65.62,-14.62 -16.87,-9.71 -29.66,-23.82 -38.45,-42.26 -8.77,-18.51 -13.21,-38.29 -13.21,-59.48 0,-23.1 4.95,-43.24 14.91,-60.45 9.93,-17.2 24.07,-30.27 42.4,-39.21 18.32,-8.94 38.51,-13.39 60.48,-13.39 25.02,0 46.02,5.64 63,16.95 17.05,11.31 28.91,27.18 35.61,47.63l-32.47 6.83c-5.76,-16.12 -14.18,-27.9 -25.18,-35.24 -11,-7.39 -24.84,-11.06 -41.53,-11.06 -19.14,0 -35.2,4.09 -48.06,12.26 -12.83,8.16 -21.92,19.16 -27.09,32.91 -5.23,13.79 -7.86,28 -7.86,42.62 0,18.86 3.08,35.34 9.26,49.39 6.16,14.11 15.75,24.6 28.78,31.58 13.03,6.97 27.11,10.43 42.29,10.43 18.5,0 34.08,-4.75 46.89,-14.2 12.79,-9.52 21.46,-23.57 26,-42.27zm74.74 77.86l0 -221.96 180.43 0 0 26.03 -147.28 0 0 68.21 137.85 0 0 26.03 -137.85 0 0 75.65 153.22 0 0 26.04 -186.37 0z"/>
  </g>
 </g>
</svg>
