<?xml version="1.0" encoding="UTF-8"?> <!-- Creator: CorelDRAW 2020 (64-Bit) --> <svg xmlns="http://www.w3.org/2000/svg" xmlns:xlink="http://www.w3.org/1999/xlink" xmlns:xodm="http://www.corel.com/coreldraw/odm/2003" xml:space="preserve" width="300mm" height="300mm" version="1.1" style="shape-rendering:geometricPrecision; text-rendering:geometricPrecision; image-rendering:optimizeQuality; fill-rule:evenodd; clip-rule:evenodd" viewBox="0 0 30000 30000"> <defs> <style type="text/css"> <![CDATA[ .str6 {stroke:#373435;stroke-width:70.56;stroke-miterlimit:22.9256;stroke-opacity:0.501961} .str4 {stroke:#373435;stroke-width:141.11;stroke-miterlimit:22.9256} .str3 {stroke:#373435;stroke-width:105.83;stroke-miterlimit:22.9256} .str5 {stroke:#373435;stroke-width:70.56;stroke-miterlimit:22.9256} .str1 {stroke:#A7C4D2;stroke-width:52.92;stroke-miterlimit:22.9256} .str7 {stroke:#4B4B4D;stroke-width:20;stroke-miterlimit:22.9256} .str0 {stroke:#373435;stroke-width:20;stroke-miterlimit:22.9256} .str2 {stroke:#A7C4D2;stroke-width:20;stroke-miterlimit:22.9256} .fil1 {fill:none} .fil0 {fill:#FEFEFE} .fil28 {fill:#A9ABAE} .fil9 {fill:#96989A} .fil25 {fill:#727376} .fil29 {fill:#4B4B4D} .fil10 {fill:#373435} .fil2 {fill:#373435} .fil17 {fill:#FFFBD6} .fil18 {fill:#FFF8AF} .fil30 {fill:#585570} .fil31 {fill:#837EA6} .fil32 {fill:#0E9999} .fil27 {fill:#201E1E} .fil20 {fill:aqua} .fil21 {fill:#01542F} .fil19 {fill:#FFCC00} .fil22 {fill:#FEFEFE;fill-rule:nonzero} .fil23 {fill:#373435;fill-rule:nonzero} .fil15 {fill:url(#id1)} .fil3 {fill:url(#id2)} .fil11 {fill:url(#id3)} .fil8 {fill:url(#id4)} .fil7 {fill:url(#id5)} .fil4 {fill:url(#id6)} .fil5 {fill:url(#id7)} .fil6 {fill:url(#id8)} .fil12 {fill:url(#id9)} .fil16 {fill:url(#id10)} .fil13 {fill:url(#id11)} .fil14 {fill:url(#id12)} .fil24 {fill:url(#id13);fill-rule:nonzero} .fil26 {fill:url(#id14);fill-rule:nonzero;fill-opacity:0.501961} ]]> </style> <clipPath id="id0"> <path d="M6643.03 24143.88c0,-178.04 0,-357.63 0,-537.21 -436.87,-120.49 -789.55,-458.01 -1050.02,-1032.2 -133.28,-293.79 -231.51,-624.65 -295.81,-984.63 -47.53,-265.97 -76.86,-548.01 -89.22,-843.66l1151.65 0c32.43,378.81 140.3,690.12 322.58,929.6 0,-227.92 0,-456.61 0,-685.31 329.11,3.07 660.18,6.14 991.25,10.74 0,212.58 0,424.39 0,636.97 186.18,-247.74 293.38,-543.3 320.34,-892l1150.43 0c-11.33,250.01 -44.66,489.75 -97.51,719.32 -66.95,290.8 -173.73,567.01 -307.57,833.45 -250.14,497.95 -591.62,874.12 -1032.39,1120.47 0,165.76 0,331.53 0,496.52 -354.58,72.92 -709.16,150.43 -1063.73,227.94zm5688.92 -3397.7l0 585.79c0,510.35 -129.07,923.4 -385.93,1245.56 -258.35,324.02 -597.78,502.53 -1026.51,541.82 -425.4,38.98 -749.63,-87.99 -975.58,-394.47 -112.95,-153.21 -199.99,-347.62 -254.67,-582.49 -55.01,-236.32 -84.23,-511.88 -84.23,-825.76l0 -570.45 1120.54 0 0 555.1c0,290.85 82.27,433.3 246.84,428.23 158.66,-4.9 239,-148.89 239,-432.07l0 -551.26 1120.54 0zm2274.38 0l0 892.77c0,400.61 0,801.21 0,1201.8 -374.17,4.62 -748.34,9.23 -1120.54,15.37 0,-403.68 0,-807.35 0,-1210.26l0 -899.68 1120.54 0zm1175.39 2105.33c0,-471.98 0,-943.95 0,-1415.94l0 -689.39 1120.55 0 0 717.03c0,475.81 0,951.63 0,1426.67 -374.16,-14.59 -748.33,-29.17 -1120.55,-38.37zm2728.88 -2105.33l0 733.91c0,501.91 0,1004.58 0,1506.48 -374.16,-24.55 -748.32,-47.57 -1120.54,-73.67 0,-481.18 0,-963.13 0,-1445.09l0 -721.63 1120.54 0zm2352.17 0c-98.08,316.9 -196.48,630.54 -293.27,941.12 385.92,11.51 771.84,28.39 1157.77,42.97 0,269.38 0,538.75 0,808.12 0,268.62 0,537.98 0,806.58 -950.1,-127.39 -1898.26,-236.37 -2846.41,-324.62 193.93,-557.16 389.37,-1124.58 581.82,-1704.49 62.61,-188.66 125.12,-378.54 187.59,-569.68l1212.5 0zm2619.77 0l0 1377.03c-107.75,-7.67 -215.5,-14.59 -321.28,-22.26 0,489.63 0,978.49 0,1466.58 -374.16,-61.4 -748.34,-122.03 -1120.55,-178.82 0,-605.51 0,-1212.55 0,-1818.05l0 -824.48 1441.83 0zm1308.6 0l0 898.14c0,739.82 0,1479.63 0,2219.44 -374.18,-69.83 -748.34,-139.67 -1120.55,-208.74 0,-663.83 0,-1328.44 0,-1993.04l0 -915.8 1120.55 0z"></path> </clipPath> <linearGradient id="id1" gradientUnits="userSpaceOnUse" x1="13137.12" y1="13405.55" x2="17050.26" y2="13703.81"> <stop offset="0" style="stop-opacity:1; stop-color:#00A859"></stop> <stop offset="1" style="stop-opacity:1; stop-color:#365E3B"></stop> </linearGradient> <linearGradient id="id2" gradientUnits="userSpaceOnUse" x1="14585.87" y1="25078.54" x2="16014.28" y2="24770.42"> <stop offset="0" style="stop-opacity:1; stop-color:#914991"></stop> <stop offset="1" style="stop-opacity:1; stop-color:#2C4867"></stop> </linearGradient> <linearGradient id="id3" gradientUnits="userSpaceOnUse" x1="22610.17" y1="7029.8" x2="16313.08" y2="8961.2"> <stop offset="0" style="stop-opacity:1; stop-color:#A04799"></stop> <stop offset="1" style="stop-opacity:1; stop-color:#294865"></stop> </linearGradient> <linearGradient id="id4" gradientUnits="userSpaceOnUse" xlink:href="#id2" x1="11146.09" y1="25298.91" x2="12981.4" y2="23028.98"> </linearGradient> <linearGradient id="id5" gradientUnits="userSpaceOnUse" xlink:href="#id2" x1="11479.38" y1="25427.62" x2="13656.96" y2="23738.4"> </linearGradient> <linearGradient id="id6" gradientUnits="userSpaceOnUse" xlink:href="#id2" x1="13635.66" y1="25500" x2="15380.71" y2="25109.48"> </linearGradient> <linearGradient id="id7" gradientUnits="userSpaceOnUse" xlink:href="#id2" x1="12614.61" y1="25420.64" x2="14766.14" y2="24599.04"> </linearGradient> <linearGradient id="id8" gradientUnits="userSpaceOnUse" xlink:href="#id2" x1="11808.41" y1="25579.32" x2="14150.54" y2="24300.68"> </linearGradient> <linearGradient id="id9" gradientUnits="userSpaceOnUse" x1="19212.69" y1="10702.85" x2="16663.28" y2="10932.39"> <stop offset="0" style="stop-opacity:1; stop-color:#0098DA"></stop> <stop offset="1" style="stop-opacity:1; stop-color:#2E6C41"></stop> </linearGradient> <linearGradient id="id10" gradientUnits="userSpaceOnUse" x1="13322.13" y1="14196.88" x2="15497.39" y2="14196.88"> <stop offset="0" style="stop-opacity:1; stop-color:#FFCC29"></stop> <stop offset="1" style="stop-opacity:1; stop-color:#1FAD6C"></stop> </linearGradient> <linearGradient id="id11" gradientUnits="userSpaceOnUse" xlink:href="#id3" x1="8102.99" y1="7624.05" x2="14354.19" y2="8673.68"> </linearGradient> <linearGradient id="id12" gradientUnits="userSpaceOnUse" xlink:href="#id9" x1="11592.2" y1="10622.12" x2="14126.78" y2="10501.48"> </linearGradient> <linearGradient id="id13" gradientUnits="userSpaceOnUse" x1="14943.4" y1="20720.27" x2="15051.73" y2="24168.64"> <stop offset="0" style="stop-opacity:1; stop-color:#848688"></stop> <stop offset="1" style="stop-opacity:1; stop-color:#636363"></stop> </linearGradient> <linearGradient id="id14" gradientUnits="userSpaceOnUse" xlink:href="#id13" x1="14945.38" y1="20720.26" x2="15053.75" y2="24169.81"> </linearGradient> </defs> <g id="Layer_x0020_1"> <metadata id="CorelCorpID_0Corel-Layer"></metadata> <rect class="fil0" x="-2.93" y="2.93" width="30000" height="30000"></rect> <rect class="fil1" x="-2.93" y="2.93" width="30000" height="30000"></rect> <g id="_1960540894864"> <g> <path class="fil2 str0" d="M15114.52 27239.4c-112.26,438.16 -265.96,864.94 -472.37,1269.62 -49.94,97.92 -147.21,153.79 -256.95,147.6 -109.75,-6.18 -200.12,-72.63 -238.74,-175.54 -183.57,-489.09 -323.91,-991.99 -410.81,-1505.02 -199.7,252.37 -429.98,479.32 -691.87,678.75 -85.42,65.05 -193.8,74.45 -289.15,25.06 -95.35,-49.39 -150.2,-143.32 -146.35,-250.64 7.52,-209.71 19.53,-419.44 36.76,-628.76 -155.97,158.35 -321.79,307.35 -496.5,446.93 -87.24,69.69 -201.32,79.66 -299.33,26.17 -98,-53.5 -151.32,-154.84 -139.9,-265.91 22.75,-221.16 52.34,-441.92 89.91,-661.28 -76.03,53.62 -153.2,105.69 -231.34,156.27 -93.94,60.81 -208.79,59.24 -301.03,-4.11 -92.25,-63.35 -134.94,-169.98 -111.91,-279.48 40.95,-194.69 88.63,-388.31 144.17,-579.62 -229.48,93.09 -468.8,161.55 -717.26,204.38 -106.17,18.3 -206.99,-23.79 -268.62,-112.15 -61.64,-88.37 -66.31,-197.52 -12.46,-290.83 732.16,-1268.57 1763.71,-2503.41 3212.95,-2948.53 104.62,-32.14 211.91,-1.61 283.94,80.81 12.73,14.56 23.7,29.99 32.88,46.08 82.96,-56.11 185.37,-62.17 275.82,-15.24 54.1,-68.35 109.82,-135.47 167.14,-201.26 70.04,-80.38 173.98,-111.58 275.34,-83.73 41.83,-77.57 84.82,-154.51 128.93,-230.81 59.11,-102.24 171.53,-153.24 287.39,-130.38 64.4,12.7 119.14,46.11 157.79,93.36 98.15,19.71 177.91,91.98 206.15,192.69 396.62,1414.61 1038.21,3934.09 571.07,5372.1 -31.49,96.92 -107.85,164.04 -208.01,182.83 -100.16,18.79 -195.66,-16.08 -260.13,-95 -119.73,-146.54 -225.15,-301.92 -317.51,-464.36z"></path> <g> <path class="fil3 str1" d="M15067.04 22316.97c647.07,2307.89 920.61,4148.86 574.27,5215.02 -906.7,-1109.77 -1033.41,-2904.98 -574.27,-5215.02z"></path> <path class="fil4 str1" d="M14911.83 22223.84c-1151.27,1991.35 -1306.19,4046.28 -512.19,6161.8 840.57,-1648.02 830.78,-3810.01 512.19,-6161.8z"></path> <path class="fil5 str1" d="M14477.24 22580.81c138.61,2156.54 -288.6,3860.42 -1598.65,4858.04 70.54,-1966.09 534.75,-3636.96 1598.65,-4858.04z"></path> <path class="fil6 str1" d="M13980.57 22844.67c-97.73,1839.95 -786.95,3219.85 -2002.19,4190.64 200.47,-1948.69 891.15,-3318.06 2002.19,-4190.64z"></path> <path class="fil7 str1" d="M13716.72 22891.24c-319.35,1668.16 -1191.1,2667.63 -2297.09,3383.55 332.47,-1580.76 1054.06,-2754.74 2297.09,-3383.55z"></path> <path class="fil8 str1" d="M13592.55 22751.55c-1165.14,357.86 -2182.2,1308.02 -3057.61,2824.8 1241.52,-214.03 2271.36,-1120.77 3057.61,-2824.8z"></path> </g> </g> <g> <path class="fil9" d="M14994.19 10166.33c4059.99,0 7351.26,3291.27 7351.26,7351.26 0,4060 -3291.27,7351.27 -7351.26,7351.27 -4060,0 -7351.27,-3291.27 -7351.27,-7351.27 0,-4059.99 3291.27,-7351.26 7351.27,-7351.26zm0 168.23c3803.29,0 6886.46,3215.95 6886.46,7183.03 0,3967.09 -3083.17,7183.03 -6886.46,7183.03 -3803.29,0 -6886.46,-3215.94 -6886.46,-7183.03 0,-3967.08 3083.17,-7183.03 6886.46,-7183.03z"></path> </g> <path class="fil10" d="M22189.49 16873.66c297.37,-269.36 653.65,-465.51 1066.67,-572.56 809.88,-209.9 1568.75,38.85 1999.74,776.72 187.5,321.01 289.79,693.08 351.04,1057.51 71.08,422.89 92.94,860.86 92.94,1289.23 0,739.83 0,1479.64 0,2219.46 0,739.56 0,1479.12 0,2218.68l0 429.03 -660.05 548.24 -421.73 -78.73c-373.05,-69.62 -746.1,-139.25 -1119.23,-208.49l-172.43 -32 -317.97 -52.18c-369.74,-60.67 -739.61,-120.63 -1110.01,-177.15l-84.82 -12.94 -212.13 -28.44c-934,-125.23 -1870.36,-233 -2808.69,-320.34l-332.47 -30.94 -12.78 -0.85c-374.75,-24.59 -749.61,-47.65 -1124.25,-73.92l-114.53 -8.03 -344.75 -13.43c-369,-14.38 -738.02,-28.82 -1107.18,-37.95l-371.9 -9.2 -198.67 -203.65 -195.26 197.68 -375.3 4.63c-372.12,4.59 -744.25,9.16 -1116.35,15.29l-382.99 6.32 -539.27 -530.45c-409.99,463.91 -949.81,726.32 -1574.81,783.58 -713.65,65.4 -1357.94,-174.65 -1789.79,-755.95 -170.88,232.85 -367.47,442.92 -591.21,625.47 0,5.52 0,11.04 0,16.57l0 325.4 -411.23 504.39 -318.72 65.54c-351.38,72.25 -701.83,148.89 -1052.28,225.5l-427.51 93.46 -681.76 -548.82 0 -405.92c-428.46,-295.03 -744.19,-729.57 -968.01,-1222.96 -173.21,-381.82 -289.48,-788.94 -363.12,-1201.16 -78.57,-439.8 -110.2,-888.85 -110.2,-1335.31 0,-572.7 53.34,-1155.57 201.26,-1710.11 136.42,-511.42 352.45,-1004.82 697.21,-1411.3 570.91,-673.11 1368.29,-967.26 2231.29,-732.7 604.33,164.25 1096.86,496.1 1492.98,935.51l430.49 -362.33 419.15 72.6c359.11,62.2 719.86,114.67 1081.29,161.37l341.81 44.16 5.14 5.83 107.88 10.24c370.59,35.14 741.46,67.07 1112.32,99.01l70.36 6.07c369.78,20.88 739.75,38.04 1109.72,55.22l243.21 11.3 226.07 143.96 255.88 -145.46 244.66 1.51c360.21,2.23 720.5,-10.66 1080.47,-22.53l529.46 -17.47 43.68 70.73c274.74,-138.51 578.17,-221.71 903.31,-248.58 384.04,-31.75 751.79,18.61 1077.81,164.44l150.31 -173.23 337.87 -48.11c964.54,-137.33 1925.04,-302.36 2881.18,-489.28l500.92 -97.92 125.28 135.74z"></path> <path class="fil2 str0" d="M18384.04 14016.43c-15.56,4.19 -31.13,8.15 -46.74,11.87 -83.37,214.17 -240.28,403.25 -468.71,552.27 20.2,602.81 -125.93,1264.81 -316.03,1856.71l2270.5 165.31 -54.71 1272.05 -2625.8 -191.16 11.56 -268.76 -284.46 668.15c-120.81,239.61 -249.2,475.5 -384.72,706.79 -135.48,231.2 -391.11,348.81 -646.37,309.24 -93.7,71.28 -208.28,116.56 -334.34,127.44 -117.17,10.1 -229.65,-10.8 -328.87,-57.32 -99.32,157.04 -207.24,308.18 -324.71,451.3 -175.04,213.23 -452.49,289.32 -711.53,195.4 -155,161.11 -321.44,308.76 -500.23,435.3 -233.03,164.95 -534.23,158.59 -760.09,-16.05 -225.86,-174.63 -307.84,-464.51 -206.87,-731.57 166.82,-441.21 229.93,-1028.15 286.73,-1519.04 -110.66,78.22 -244.19,117.61 -389.17,112.36 -96.48,-3.48 -186.48,-26.34 -266.76,-66.59 -220.91,-2.45 -418.59,-115.35 -535.7,-310.54l-24.78 -41.32 -2395.12 -211.04 54.72 -1539.74 2272.77 200.28 129.58 -500.98c79.97,-94.6 185.89,-161.65 313.33,-197.32l51.51 -14.43c47.86,-57.66 105.89,-105.3 176.07,-145.03l363.71 -205.88c-60.93,-357.48 -93.74,-717.94 -96.07,-1086.26l-67.23 -366.84c-67.88,-18.67 -135.29,-40.71 -202.01,-65.45l255.68 -36.93 0.05 0c-88.36,-23.35 -175.7,-52.79 -261.64,-86.41 -61.7,-24.13 -117.9,-57.37 -167.24,-98.04 -195.26,-36.96 -374.28,-128.84 -524.47,-276.35 -20.98,-20.6 -40.23,-42.43 -57.7,-65.29 -303.2,-60.78 -582.55,-222.02 -823.74,-425.35 -25.42,-21.42 -48.82,-44.73 -70.09,-69.62 -140.3,-41.16 -275.92,-99.58 -405.39,-166.2 -190.3,-97.9 -310.96,-284.64 -329.19,-488.86 -26.31,-34.36 -48.61,-71.04 -66.79,-109.39 -94.46,-72.15 -165.66,-170.36 -204.86,-282.79 -178.75,-74.87 -351.59,-161.46 -514.79,-271.62 -127.78,-86.24 -214.78,-213.78 -250.79,-355.87 -106.49,-93.93 -202.76,-199.05 -288.35,-313.75 -73.44,-98.41 -113.77,-213.19 -120.62,-329.66 -221.54,-249.27 -366.23,-537.16 -440.48,-869.44 -13.22,-59.13 -17.52,-118.81 -13.38,-177.36l-140.35 -254.97c-97.35,-176.84 -98.13,-384.92 -15.72,-558.1 -128.52,-463.93 -152.67,-944.45 -97.3,-1428.22 9.48,-82.78 35.16,-160.57 74.04,-229.97 -2.27,-23.55 -4.24,-47.14 -5.87,-70.76 -16.96,-245.68 2.4,-498.61 109.31,-724.14 30.17,-63.63 70.37,-120.5 118.32,-168.95 30.09,-105.75 70.2,-208.46 122.54,-305.66 41.92,-77.88 98.81,-143.82 165.79,-195.33 201.74,-642.53 481.17,-1303.39 899.47,-1822.58 128.22,-159.16 322.41,-238.91 515.62,-226.42 58.63,-57.02 118.63,-112.64 179.91,-166.84 357.1,-315.84 749.98,-575.95 1148.59,-835.18 117.21,-76.22 234.44,-152.43 350.39,-230.57 271.85,-183.17 640.32,-118.96 834.18,145.39 193.9,264.36 144.41,635.03 -112.01,839.3 -276.8,220.49 -550.57,445.42 -812.72,683.25 -182.25,165.35 -360.78,337.72 -520.63,525.07 -112.53,131.87 -216.63,271.53 -292.33,425.33 86.08,140.05 112.54,309.67 70.45,472.31 -40.08,154.94 -91.51,307.05 -159.05,451.64 61.17,122.65 79.65,263.59 49.58,401.83 -45.29,208.12 -108.77,412.56 -197.53,605.89 4.19,44.71 3.5,90.12 -2.36,135.43 -7.55,58.35 -18.37,116.06 -32.58,172.84 33.83,113.06 34.35,235.12 -1.28,352.26 126.7,280.77 287.49,564.22 495.36,783.22 154.5,162.77 325.88,278.76 537.99,353.33 119.52,42.02 244.24,68.45 369.18,88.19 395.45,62.47 778.29,69.82 1168.5,180.64 99.93,28.38 196.71,62.43 290.21,102.7 406.04,-404.26 896.72,-784.4 1429.8,-873.74 757.7,-149.34 1515.53,239.33 1942.71,861.86 3.45,5.03 6.81,10.1 10.1,15.22 70.2,109.16 132.21,223.93 187.56,341.8 259.84,-274.05 592.98,-437.94 940.22,-575.3 315.24,-124.68 641.57,-229.79 948.55,-373.66 310.61,-145.56 589.22,-325.62 828.34,-573.38 280.33,-290.49 478.76,-643.8 623.52,-1018.02l-13.1 -76.47c-25.59,-149.27 -198.25,-381.27 -123.98,-503.84 -49.14,-231.9 66.54,-352.48 -96.98,-530.08 -164.46,-178.6 -207.26,-434.53 -111.55,-655.95 -648.11,-439.04 -1115.98,-698.63 -877.77,-1063.25 -279.26,-210.48 -600.74,-364.82 -921.37,-501.14 -480.52,-204.31 -973.06,-379.77 -1460.11,-567.68 -284.93,-109.95 -445.63,-416.45 -374.05,-713.34 71.8,-297.77 353.5,-496.56 658.11,-464.42 327.48,34.54 652.7,90.19 973.38,164.9 925.27,215.56 1842.29,595.33 2630.48,1128.07 566.29,382.74 1098.48,869.37 1468.91,1451.35 76,31.01 146.1,77.65 205.84,138.56 30.6,31.2 59.82,63.58 87.54,97.12 185.43,54.2 337.51,194.4 404.09,384.06 180.23,513.41 276.56,1090.13 276.13,1645.06 82.33,91 137.42,207.14 153.18,336.11 45.5,372.32 3.84,700.96 -96.76,1059.91 -3.81,13.58 -7.66,27.15 -11.53,40.7 31.53,80.29 46.37,167.99 41.2,258.07 -11.01,191.59 -52.66,393.62 -115.31,585.08 58.42,140.28 63.06,299.34 8.47,446.67 -111.73,301.61 -271.72,619.09 -467.71,892.62 16.03,171.2 -40.84,342.1 -161.13,471.52 -247.19,265.96 -507.38,488.92 -804.32,692.27 -7.84,153.47 -73.24,297.46 -182.05,404.03 -14.37,50.37 -35.38,99.33 -63,145.59 17.17,210.31 -75.82,419.62 -255.08,547.12 -131.02,93.19 -270.63,178.45 -418.33,244.32 -19.54,32.73 -42.33,63.9 -68.26,93.03 -227.84,255.96 -504.03,471.91 -821.12,579.24 -16.35,31.77 -35.64,62.42 -57.89,91.59 -135.98,178.32 -311.04,300.41 -511.46,366.13 -44.95,51.73 -99.04,96.28 -160.87,131.35 -178.68,101.35 -369.22,184.9 -567.49,230.1 -3.37,8.95 -6.86,17.82 -10.48,26.66l148.2 13.01z"></path> <path class="fil0" d="M22321.02 6639.18c15.93,-3.68 32.79,-4.51 49.96,-2.15 61.89,8.53 108.67,56.03 116.24,118.04 38.2,312.54 1.48,573.9 -82.64,874.01 -25.14,89.74 -51.59,177.08 -76.55,264.27 56.94,20.46 92.88,74.5 89.37,135.49 -12.56,218.68 -82.9,485.27 -191.03,711.38 34.09,3.27 65.3,19.54 88.91,47.17 32.85,38.43 41.66,87.97 24.1,135.37 -116.96,315.71 -318.8,707.93 -575.89,988.84 36.26,15.55 62.95,45.37 74.98,84.7 14.55,47.6 3.5,95.67 -30.39,132.14 -244.35,262.9 -486.84,466.59 -785.04,664.33 -92.64,61.43 -186.01,121.1 -278.89,181.55l23.39 4.56c57.53,11.22 99.73,55.39 108.31,113.37 8.6,57.98 -18.98,112.49 -70.77,139.92l-118.59 62.76c2.03,2.49 4,5.07 5.9,7.74 34.6,48.69 34.01,111.36 -1.5,159.38 -42.91,58.03 -90.02,110.24 -141.32,155.19 33.06,13.54 60.12,40.14 74.24,75.76 23.34,58.87 4.09,124 -47.52,160.71 -156.87,111.57 -344.93,222.19 -541.44,267.78 18.72,46.51 10.63,101.2 -24.68,140.87 -257.57,289.35 -572.36,503.79 -929.83,492.3l32.44 48.05c33.18,49.15 31.38,111.17 -4.57,158.31 -122.76,161.01 -286.32,225.73 -461.22,235.24 1.09,8.48 1.41,17.22 0.94,26.15 -2.55,47.61 -27.13,87.34 -68.6,110.87 -234.39,132.95 -492.12,232.31 -749.6,197.96 31.8,249.95 -74.38,458.18 -331.65,615.71 -44.83,27.45 -97.73,27.31 -142.41,-0.37 -44.69,-27.69 -68.37,-74.99 -63.76,-127.36 0.83,-9.35 -0.23,-18.11 -2.7,-27.13 -13.67,-49.87 -77,-127.52 -106.33,-172.57 -5.88,-9.01 -11.52,-18.02 -16.93,-27.09l-84.27 113.68c-26.13,35.25 -63.65,54.41 -107.52,54.91 -43.87,0.51 -81.83,-17.8 -108.75,-52.42 -469.87,-604.32 -555.02,-1363.58 -309.81,-2080.07 88.29,-407.9 52.6,-851.58 -25.68,-1257.94 -10.81,-56.1 12.7,-110.25 61.07,-140.65 48.38,-30.41 107.35,-28.11 153.23,5.95 1.73,1.29 5.44,4.13 7.66,4.64 10.94,-1.05 31.8,-22.71 38.32,-30.28 31.2,-36.26 53.08,-86.66 66.75,-132.03 43.85,-145.7 28.61,-310.33 -26.92,-450.68 -11.89,-30.07 -12.99,-59.53 -3.35,-90.4 107.11,-343.2 513.26,-553.62 817.18,-693.1 428.04,-196.45 875.84,-348.6 1304.67,-546.72 966.22,-446.4 1671.17,-1033.67 1453.51,-2200.83 -12.71,-68.16 27.22,-134.22 93.46,-154.65 0.65,-0.21 1.29,-0.4 1.94,-0.58 -25.78,-187.96 -51.45,-385.15 -101.13,-565.78 -16.92,-61.5 9.89,-124.65 65.88,-155.2 18.26,-9.96 37.75,-15.44 57.21,-16.65 -86.8,-160.11 -195.35,-306.4 -306.53,-391.91 -48.12,-37.03 -65.68,-98.65 -44.3,-155.48 17.69,-46.95 57.52,-78.84 105.01,-86.29 -197.14,-199.89 -1472.28,-1047.68 -837.07,-1133.27 -45.1,-44.39 -98.94,-89.75 -122.21,-108.72 -154.41,-125.94 -325.85,-240.49 -494.01,-347.15 -472.49,-299.7 -982.07,-569.06 -1489.87,-803.45 -224.89,-103.8 -452.9,-201.65 -683.99,-290.81 -63.94,-24.67 -99.18,-91.92 -83.12,-158.54 16.06,-66.61 78.1,-110.38 146.25,-103.19 700.63,77.29 1393.13,179 2013.51,497.02 5.42,-106.55 88.5,-135.42 253.61,-82.3 1100.24,504.21 2056.49,1205.91 2565.91,2300.93 10.46,-4.91 21.75,-8.57 33.76,-10.87 46,-8.79 89.6,4.85 122.41,38.28 72.35,73.76 130.57,153.81 175.28,239.83 21.93,-15.62 48.69,-24.54 77.67,-24.83 59.19,-0.61 109.9,34.94 129.51,90.8 187.36,533.7 280.54,1171.95 239.8,1765.5z"></path> <path class="fil11" d="M16663.25 10544.88c211.17,156.85 477.26,-301.65 293.06,-767.28 317.93,-1018.8 4056.64,-945.95 3579.22,-3506l205.92 468.71c-97.31,-363.15 -120,-858.31 -214.21,-1200.84l305.99 341.53c-43.43,-301.15 -270.61,-771.58 -537.57,-976.92l260.79 16.82c-176.41,-471.97 -679.97,-718.99 -1129.47,-1135.67l441.36 37.93c-560.38,-824.92 -1765.86,-1534.1 -3173.03,-1863.31 826.35,142.36 1731.2,335.57 2597.8,753.49l-347.93 -285.76c952.59,310.1 2023.53,1212.84 2587.07,2400.78l69.58 -165.38c142.47,145.23 233.41,329.07 248.11,570.09l103.16 -314.41c271.15,772.38 292.29,1603.29 167.22,2183.09 106.1,70.08 188.88,-226.65 232.12,-330.2 77.85,637.05 -185.63,977.69 -260.47,1560.84l189.87 -311.34c-15.51,270.04 -136.96,668.33 -328.16,906.42 92.11,42.57 172.24,-34.59 258.36,-51.88 -175.77,474.52 -479.19,957.41 -798.82,1160.2 78.45,73.55 210.94,-19.45 295.39,0.2 -497.09,534.84 -819.82,659.6 -1311.97,1008.87l344.89 67.29 -429.02 227.13c66.49,66.32 157.83,76.69 269.2,42.05 -148.25,200.49 -325.64,290.25 -529.96,277.61 122.27,100.45 278.64,107.13 445.84,84.12 -278.21,197.86 -534.96,301.27 -757.09,252.36l168.24 176.66c-372.97,418.99 -751.46,545.58 -1135.63,370.12l227.13 336.48c-172.55,226.3 -463.94,222.4 -815.98,100.95l328.08 235.54c-303.8,172.32 -601.94,262.53 -883.26,109.35 157.19,357.41 33.63,562.41 -201.9,706.62 16.82,-190.67 -235.54,-297.23 -201.89,-546.79l-252.69 340.89c-339.6,-436.76 -574.68,-1124.96 -286.03,-1960.01 83.58,-379.22 72.81,-821.32 -23.32,-1320.32l0 -0.03z"></path> <g id="_1960540512016"> <path class="fil1 str2" d="M17204.07 13512.98l-231.48 312.27c-339.59,-436.77 -574.68,-1124.96 -286.02,-1960.01 26.39,-119.74 43.37,-245.73 51.22,-377.81l0.02 -0.06 186.91 392.99c-80.36,553.85 -2.8,1098.91 279.35,1632.62z"></path> <path class="fil1 str2" d="M17629.07 13324.52c157.2,357.41 33.63,562.41 -201.89,706.62 16.82,-190.67 -235.53,-297.23 -201.89,-546.79l-21.22 28.63c-282.15,-533.71 -359.71,-1078.77 -279.35,-1632.62l346.81 103.04c-7.57,354.66 154.3,860 357.54,1341.12z"></path> <path class="fil1 str2" d="M18184.27 12979.63l328.07 235.53c-303.81,172.33 -601.94,262.55 -883.27,109.36 -175.98,-416.61 -320.94,-851.36 -351.73,-1190.73l236.12 -201.57c122.89,401.67 305.23,772.34 670.81,1047.41z"></path> <path class="fil1 str2" d="M18773.11 12542.2l227.13 336.49c-172.55,226.29 -463.93,222.38 -815.97,100.94 -365.58,-275.07 -547.92,-645.74 -670.81,-1047.41l227.13 -142.99c310.45,376.23 648.27,650.83 1032.52,752.97z"></path> <path class="fil1 str2" d="M19740.5 11995.43l168.24 176.65c-372.97,418.98 -751.46,545.58 -1135.63,370.12 -384.25,-102.14 -722.07,-376.74 -1032.52,-752.97l-50.49 -487.9c658.47,416.48 1339.24,667.69 2050.4,694.1z"></path> <path class="fil1 str2" d="M20113.06 11659.59c-20.16,0.82 -40.6,0.62 -61.32,-0.66l61.32 0.66zm-61.32 -0.66c122.27,100.45 278.65,107.14 445.85,84.13 -278.22,197.86 -534.97,301.27 -757.09,252.37 -711.16,-26.41 -1391.93,-277.62 -2050.4,-694.1l218.73 -168.26c550.97,448.79 1285.07,591.11 2142.91,525.86z"></path> <path class="fil1 str2" d="M20396.65 11044.86l344.88 67.29 -429.02 227.13c66.49,66.32 157.83,76.68 269.19,42.05 -133.2,180.15 -289.95,270.87 -468.64,278.26l-61.32 -0.66c-710.73,78.31 -1584.71,-68.64 -2142.91,-525.86l-63.16 -269.48c835.22,378.39 1857.61,653.55 2550.98,181.27z"></path> <path class="fil1 str2" d="M22127.13 8274.74l154.7 -253.69c-32.52,336.2 -150.4,634.59 -328.15,906.41 -816.16,1053.6 -1922.79,1936.16 -3780.92,1720.81l156.67 -137.68c1297.25,-54.79 3215.85,-912.64 3797.7,-2235.85z"></path> <path class="fil1 str2" d="M21985.87 8876.87c-2.46,137.28 150.79,-0.84 226.17,-1.28 -155.53,525.98 -458.02,867.16 -798.82,1160.2 -1472.29,1093.44 -2579.19,898.05 -3442.38,581.71l162.66 -47.86c1170.09,357.18 2779.51,-165.96 3852.37,-1692.77z"></path> <path class="fil1 str2" d="M21391.37 10051.95c143.87,39.14 241.86,-15.52 317.24,-15.95 -538.74,591.83 -983.52,783.26 -1311.97,1008.86 -855.54,512.62 -2151.33,88.21 -2605.39,-289.65l255.85 -110.32c1056.33,399.08 2145.68,275.2 3344.27,-592.94z"></path> <path class="fil1 str2" d="M22120.31 7101.75c125.27,45.61 204.72,-165.89 232.13,-330.2 50.88,568.18 -173.65,1040.56 -260.48,1560.84 -623.77,1360.01 -2880.15,2283.87 -3906.24,2130.3l17.53 -297c1740.06,-480.96 3653.05,-1435.69 3917.06,-3063.94z"></path> <path class="fil1 str2" d="M21862.04 5196.22l91.05 -277.56c915.81,3098.74 -917.78,4411.32 -3749.84,5247.03l3.24 8.84 -0.01 0 -415.44 -320.08c784.34,-537.85 4162.64,-926.99 4071,-4658.23z"></path> <path class="fil1 str2" d="M18981.23 2428.95c1000.04,364.97 2087.01,1324.37 2551.01,2399.42l69.59 -165.4c137.45,136.39 226.89,311.94 260.21,533.25 110.08,3402.57 -2632.87,3972.07 -4071,4658.23l-2.85 -588.65c1185.51,-95.98 6345.6,-2284.99 1193.04,-6836.85z"></path> </g> <path class="fil12" d="M16663.25 10544.88c211.18,156.86 477.26,-301.65 293.05,-767.28 315.6,-538.4 646.83,-564.16 1124.89,-720.93l-206.01 242.58 361.72 -286.01 -445.83 841.21 891.67 -437.43 -328.08 429.01 143.01 -42.05 -294.42 361.71 773.9 -185.06 -689.77 370.12 353.31 0 -311.26 159.85 883.27 159.82 -1211.35 109.35 580.44 353.31 -672.97 0 386.96 328.07 -605.66 -159.83 445.84 572.02 -395.37 -84.12 75.71 513.14 -302.84 -370.13 16.83 689.79 -336.48 -445.84 -109.35 361.71 -354.45 -950.67 0 0c30.35,-312.37 6.75,-660.7 -66.76,-1042.29l0 -0.02 0 -0.03z"></path> <path class="fil0" d="M9015.62 10051.74c-8.55,-7.74 -16.86,-15.7 -24.71,-23.9 -27.12,-28.3 -46.82,-63.35 -52.04,-100.25 -204.77,-202.62 -336.5,-438.28 -401.96,-731.22 -10.48,-46.91 2.94,-92.55 36.62,-125.8l-237.83 -432.06c-32.26,-58.63 -17.72,-130.55 34.79,-172.03 22.35,-17.65 48.47,-27.35 74.94,-29.19 -180.78,-472 -227.28,-974.5 -166.92,-1501.89 6.62,-57.85 46.82,-103.16 103.43,-116.64 -14.7,-89.81 -27.02,-179.96 -33.3,-270.86 -11.02,-159.71 -5.04,-340.87 64.63,-487.83 21.2,-44.72 62.55,-73.05 109.85,-77.16 21.55,-134.9 59.38,-263.11 120.02,-375.75 27.4,-50.9 81.12,-78.06 137.93,-70.18 191.46,-658.95 464.5,-1360.4 878.95,-1874.84 42,-52.11 114.09,-65.96 172.4,-33.11 37.75,21.27 61.76,57.62 67.79,97.69 123.43,-140.08 256.56,-273.04 400.13,-400.02 339.83,-300.58 713.59,-546.14 1092.81,-792.75 119.38,-77.63 238.77,-155.27 356.86,-234.85 60.46,-40.73 142.27,-26.47 185.39,32.3 43.1,58.79 32.11,141.11 -24.9,186.52 -284.38,226.54 -566.62,458.65 -835.94,703 -196.7,178.45 -390.31,366.38 -562.82,568.56 -233.66,273.84 -421.72,565.61 -495.67,922.21l24.38 -3.5c46.35,-6.69 89.28,8.91 120.53,43.8 31.24,34.88 42.03,79.26 30.31,124.59 -52.54,203.09 -127.91,401.63 -244.16,572.78 9.44,8.22 17.89,17.92 25.1,28.96 22.55,34.49 28.18,74.81 17.09,112.04 20.06,6.94 38.41,18.86 54.12,35.46 31.83,33.62 43.92,76.99 34.08,122.22 -50.62,232.66 -127.43,461.2 -246.64,666.42 30.29,29.04 45.52,70.87 39.82,114.97 -13.36,103.22 -40.72,199.56 -82.73,288.64 13.69,7.51 26.27,17.61 37.31,30.11 32.87,37.25 42.7,85.48 27.05,132.63l-52.06 156.78c159.49,387.22 369.57,783.83 658.57,1088.31 206.81,217.88 441.51,374.81 725.05,474.5 508.3,178.7 1052.81,132.06 1565.46,277.66 227.86,64.72 432.8,164.26 616.63,314.91 41.17,33.74 58.36,84.68 46.03,136.46 -18.53,77.87 -31.47,186.09 3.54,261.68 12.1,26.11 32.83,52.94 63.33,56.87 26.89,3.46 52.58,-11.61 71.01,-29.91 50.01,-49.66 129,-52.98 182.98,-7.67l661.79 555.44c33.55,28.15 50.41,66.68 48.35,110.43 -5.05,106.75 -20.85,211.3 -38.2,316.58 -14.92,90.48 -31.01,181.73 -37.09,273.31 -17.75,266.91 70.79,454 246.96,652.3 7.92,8.91 13.72,17.38 19.19,27.98 142.7,276.89 183.2,559.05 58.46,850.41 -63.46,148.24 -159.51,278.05 -259.95,402.97 -95.36,118.64 -203.48,240.2 -278.87,372.54 -21.71,38.11 -56.68,61.64 -100.18,67.39 -43.48,5.76 -83.36,-7.86 -114.25,-39.01l-80.09 -80.82c-39.57,89.65 -86.62,156.86 -76.45,200.12 12.04,51.16 -4.65,101.36 -44.93,135.14 -40.29,33.77 -92.62,41.46 -140.92,20.68 -252.47,-108.63 -378.51,-282.2 -387.48,-509.96 -227.19,59.69 -469.63,3.27 -698.48,-86.26 -44.41,-17.37 -74.4,-53.18 -83.71,-99.95 -0.93,-4.68 -1.62,-9.34 -2.1,-13.97 -158.96,11.69 -314.46,-27.71 -446.04,-156.94 -42.3,-41.54 -52.91,-102.66 -27.09,-156.03l13.54 -27.96c-318.06,47.19 -626.7,-105.12 -894.58,-330.95 -37.04,-31.22 -53.44,-78.03 -47.02,-122.97 -181.3,-18.07 -362.54,-92.44 -517.36,-172.08 -56.3,-28.98 -84.66,-90.69 -69.95,-152.29 7.41,-31.05 24.6,-57.17 47.93,-75.52 -47.67,-32.55 -93,-71 -135.89,-114.37 -41.02,-41.49 -51.05,-101.54 -26.06,-153.82l-103.17 -36.93c-52.82,-18.92 -87.13,-65.2 -89.86,-121.24 -2.44,-50.28 21.18,-95.24 62.72,-121.24 -261.61,-91.76 -521.94,-192.68 -752.88,-348.57 -48.24,-32.55 -69.88,-89.05 -55.76,-145.5 4.17,-16.71 11.12,-31.95 20.33,-45.28 -148.18,-97.6 -277.98,-220.78 -388.7,-369.15 -35.01,-46.92 -36.61,-107.89 -4.11,-156.58 1.5,-2.25 3.05,-4.44 4.65,-6.56z"></path> <path class="fil13" d="M13645.58 9814.42c-170.92,169.75 -471.84,29.7 -365.66,-416.42 -1057.24,-866.36 -2581.43,334.57 -3624.32,-2255.63l67.86 -204.36 -215.67 42.76c120.21,-119 202.53,-270 228.24,-468.76 -58.07,66.42 -113.14,77.62 -165.56,39.42 187.95,-225.3 304.2,-509.76 374.36,-832.25l-232.02 37.32 145.75 -203.9 -234.17 49.29c225,-178.24 354.42,-446.11 435.44,-759.31l-205.87 29.67c77.16,-729.03 525.83,-1308.6 1971.93,-2460.54 -847.83,571.28 -1659.21,973.11 -2289.42,2130.27l229.3 -794.65c-417.15,517.77 -723.11,1286.58 -959.1,2213.3l-43.97 -289.11c-145.64,270.54 -156.7,679.12 -82.11,1175.57l-144.62 -728.86c-202.52,427.23 238.64,1387.39 -122.55,832.61 -80.96,707.28 35.36,1376.47 445.55,1988.86l-404.31 -366.68 354.83 644.62 -140.07 -50.89c59.19,264.85 184.08,522.47 473,761.95 -239.96,-111.76 205.68,231.55 393.85,284.45 -134.46,10.92 -272.3,-44.13 -412.36,-79.48 178.39,239.05 408.18,403.97 687.14,497.91l-295.88 30.69c244.1,164.75 530.37,269.08 791.91,357.36l242.67 83.92 -284.75 134.47 418.52 149.85c-51.61,68.78 -133.04,90.12 -238.5,73.27 160.55,162.38 333.05,220.57 516.61,182.42 -97.72,107.02 -238.59,133.51 -393.14,134.48 278.02,143.03 524.24,203.23 719.2,129.88l-129.43 182.11c392.77,331.09 752.38,396.43 1077.7,187.21l-161.94 334.65c185.94,182.61 449.56,141.03 752.8,-15.03l-266.62 256.34c297.88,116.52 579.88,159.37 814.89,-16.21 -95.82,344.49 42.94,514.18 275.27,614.14 -40.14,-170.64 174.68,-300.17 111.6,-521.98l273.56 275.99c250.79,-440.23 848.32,-777.24 477.64,-1496.49 -459.73,-517.47 -227.76,-873.96 -205.79,-1338.8l-661.79 -555.43z"></path> <g id="_1960540501504"> <path class="fil1 str2" d="M13784.94 12952.33l250.59 252.82c250.79,-440.24 374.03,-1094.73 3.35,-1813.96 -39.56,-105.09 -71.4,-217.08 -95.76,-335.77l-0.03 -0.05 -118.11 380.62c145.16,491.53 146.02,995.73 -40.04,1516.34z"></path> <path class="fil1 str2" d="M13375.1 12836.99c-95.83,344.5 42.94,514.18 275.26,614.14 -40.14,-170.63 174.68,-300.17 111.61,-521.98l22.97 23.18c186.06,-520.61 185.2,-1024.81 40.04,-1516.34l-300.91 138.69c53.18,320.48 -27.57,799.67 -148.97,1262.31z"></path> <path class="fil1 str2" d="M12826.82 12596.86l-266.63 256.33c297.88,116.54 579.9,159.39 814.91,-16.2 105.12,-400.6 179.75,-813.6 163.34,-1125.24l-240.34 -151.88c-58.94,380.13 -175.83,739.92 -471.28,1036.99z"></path> <path class="fil1 str2" d="M12235.96 12277.25l-161.94 334.65c185.94,182.59 449.55,141.01 752.8,-15.04 295.45,-297.07 412.34,-656.86 471.28,-1036.99l-224.55 -99.96c-232.28,381.56 -502.63,674.58 -837.59,817.34z"></path> <path class="fil1 str2" d="M11287.69 11907.94l-129.43 182.09c392.77,331.09 752.38,396.42 1077.7,187.22 334.96,-142.76 605.31,-435.78 837.59,-817.34l-17.94 -448.83c-542.48,463.48 -1126.75,780.07 -1767.92,896.86z"></path> <path class="fil1 str2" d="M10906.14 11652.17c18.38,-1.89 36.88,-4.74 55.49,-8.6l-55.49 8.6zm55.49 -8.6c-97.71,107.01 -238.58,133.5 -393.14,134.47 278.02,143.02 524.25,203.23 719.2,129.9 641.17,-116.79 1225.44,-433.38 1767.92,-896.86l-220.23 -123.96c-543.89,380.5 -1178.03,617.44 -1873.75,756.45z"></path> <path class="fil1 str2" d="M10568.83 11131.99l-303.84 106.03 418.54 149.86c-51.61,68.79 -133.04,90.11 -238.51,73.26 144.26,145.9 298.19,207.66 461.12,191.03l55.49 -8.6c662.04,-132.28 1268.3,-353.25 1794.11,-702.2l79.64 -54.25 -130 -308.17c-761.94,459.85 -1472.28,633.94 -2136.55,553.04z"></path> <path class="fil1 str2" d="M9536.28 10213.16c-70.36,34.93 -340.78,-70.96 -412.36,-79.49 117.95,221.64 482.31,413.6 687.12,497.91l-295.87 30.69c358.5,276.05 671.83,273.77 1053.66,469.72 660.61,80.45 1366.8,-91.31 2123.99,-545.52l-319.96 -208.68c-962.45,391.96 -1773.4,345.91 -2836.58,-164.63z"></path> <path class="fil1 str2" d="M8454.66 8573.02l354.83 644.62c-46.7,9.98 -87.64,-24.74 -140.07,-50.89 109.76,427.64 271.02,566.37 472.99,761.95 -274.95,-152.26 234.25,272.9 393.87,284.46 1063.18,510.54 1874.13,556.59 2836.58,164.63l69.34 -329.1c-1661.01,-187.59 -2514.68,-45.75 -3987.54,-1475.67z"></path> <path class="fil1 str2" d="M8535.96 6118.23c-216.69,482.81 240.36,1321.89 -122.54,832.61 -86.39,748.14 90.38,1449.14 445.55,1988.85 1266.97,1082.24 2057.36,897.63 3583.23,1109l-1.78 8.44 0.01 0 334.77 -344.38c-1317.31,-231.06 -3816.23,-265.22 -4239.24,-3594.52z"></path> <path class="fil1 str2" d="M9765.77 3747.34c-420.92,504.48 -793.36,1424.49 -959.1,2213.29l-43.97 -289.1c-82.25,143.91 -156.78,381.07 -82.11,1175.56 662.54,2598.79 2729.57,2581.59 4094.61,2865.66l-148.77 -492.27c-1697.7,-330.84 -4428.83,-618.77 -2860.66,-5473.14z"></path> </g> <path class="fil14" d="M13714.73 10102.11c-183.06,-14.51 -532.2,-163.67 -426.02,-609.78 -44.46,-337.88 -832.47,-473.47 -1314.73,-502.46l652.46 230.61 -658.61 -20.41 807.35 512.68 -865.35 -280.08 353.39 346.03 -135.13 -19.43 314.12 289.42 -725.67 -66.69 673.56 245.43 -320.24 46.13 303 104.24 -779.75 260.19 1112.27 -59.04 -480 396.05 609.99 -87.88 -307.9 347.91 528.12 -223.96 -329.43 576.71 347.39 -127.88 -1.63 475.01 226.18 -375.03 74.82 627.45 246.79 -448.07 146.34 313.6 326.71 -727.54c176.92,-567.65 69.47,-848.8 -378.03,-1223.21z"></path> <path class="fil0" d="M16220.6 15836.15l-268.7 572.07 -471.19 1869.03c-14.21,56.33 -59.83,95.84 -117.62,101.86 -57.78,6.01 -110.56,-23.26 -136.06,-75.46l-220.73 -451.85 -219.1 545.63c-20.53,51.11 -66.6,83.34 -121.64,85.12l-140.3 4.53 -16.28 71.69c-14.2,62.48 -68.12,105.6 -132.19,105.7 -64.07,0.1 -118.13,-42.83 -132.54,-105.26l-5.28 -22.89 -243.8 326.59c-29.1,38.98 -72.88,58.46 -121.32,53.98 -48.46,-4.49 -87.91,-31.67 -109.37,-75.34l-190.62 -388.06 -26.06 -4.34c-71.35,-11.9 -120.78,-77.44 -112.6,-149.29 39.29,-345.34 86.47,-691.26 150.31,-1032.98 45.37,-242.78 99.47,-488.91 173.01,-725.55 -102.03,-170.75 -149.39,-371.87 -170.17,-568.53l-77.7 -123.02c-5.62,-8.92 -9.58,-17.07 -13.13,-27 -242,-680.27 -346.75,-1388.74 -300.11,-2109.93 1.54,-23.88 8.12,-43.98 20.96,-64.16l72.53 -113.94 56.84 -756.23c0.91,-12.04 2.98,-22.21 6.87,-33.63 86.17,-252.85 205.37,-480.29 332.11,-714.11 140.27,-258.76 270.48,-504.49 355.34,-788.31 51.42,-203.44 72.28,-428.69 2.81,-630.5 -84.2,-244.65 -282.48,-397.44 -513.01,-497.58 -3.94,-1.71 -7.23,-3.32 -11,-5.38 -86.01,-46.99 -169.76,-93.27 -249.18,-151.32 -111.63,-81.61 -226.18,-194.51 -239.68,-339.86 -10.13,-109.11 39.39,-202.66 116.29,-276.05 377.1,-427.27 960.37,-1031.74 1536.07,-1124.3 579.12,-117.55 1141.98,191.37 1465.69,663.11 0.8,1.17 1.47,2.19 2.24,3.39 107.6,167.32 193.72,354.68 263.59,540.66 106.8,284.2 216.47,679.44 215.38,984.66 0,1.22 -0.02,2.27 -0.05,3.49l-7.32 249.3c56.83,220.33 81.48,440.12 69.51,667.96 -10.08,191.95 -45.82,375.84 -85.67,563.26 -70.45,331.24 -125.63,606.35 -80.41,948.71 0.49,3.7 0.78,6.87 0.97,10.61 23.62,445.86 186.81,811.78 529.96,1105.83 24.97,21.41 39.83,47.54 45.43,79.96 20.46,118.24 34.82,237.47 43.36,357.15 90.15,1263.02 -476.07,2558.07 -1028.19,3664.04 -30.33,60.74 -99.49,89.56 -163.98,68.31 -64.48,-21.24 -102.98,-85.53 -91.26,-152.41 60.66,-345.93 116.77,-692.58 172.78,-1039.28 59.39,-367.65 119.55,-734.26 184.21,-1100.08z"></path> <path class="fil15" d="M13245.96 9436.32c417.4,-473.37 957.41,-1005.6 1462.67,-1085.2 586.06,-120.46 1081.7,245.25 1329.45,606.3 275.15,427.92 458.63,1106.63 457.4,1451.39l-7.9 268.82c242.44,909.59 -205.57,1344.09 -94.88,2182.17 24.31,459.05 189.15,869.24 577.18,1201.77 220.4,1273.58 -305.06,2600.39 -972.51,3937.38 187.12,-1067.35 310.97,-2016.12 561.35,-3202.07l-735.29 1565.46 -474.39 1881.71 -354.86 -726.45 -332.99 829.23 -245.1 7.91 -39.53 173.94 -71.15 -308.35 -419.05 561.35 -221.38 -450.66 -94.87 -15.82c86.73,-762.42 197.86,-1368.65 337.29,-1793.76 -99.99,-141.72 -163.43,-334.94 -187.06,-593.96l-94.89 -150.21c-226.14,-635.73 -340.46,-1314.48 -292.53,-2055.66l90.84 -142.7 59.38 -790.22c190.41,-558.71 515.25,-923.72 689.85,-1510.1 135.01,-531.01 29.96,-1020.72 -587.04,-1288.74 -156.81,-85.67 -598.53,-313.78 -339.99,-553.53z"></path> <path class="fil16" d="M13886.36 18781.68l-221.38 -450.66 -94.87 -15.82c86.73,-762.42 197.86,-1368.65 337.29,-1793.76 -99.99,-141.72 -163.43,-334.94 -187.06,-593.96l-94.89 -150.21c-226.14,-635.73 -340.46,-1314.48 -292.53,-2055.66l90.84 -142.7 59.38 -790.22c190.41,-558.71 515.25,-923.72 689.85,-1510.1 135.01,-531.01 29.96,-1020.72 -587.04,-1288.74 -49.1,-26.82 -141.96,-20.19 -200.88,-118.37l168.26 -101.37c1861.73,-643.39 2303.34,790.49 1676.58,2270.92l231.13 -65.42 -460.18 539.84 -0.06 0.16 230.96 100.42 -461.03 535.04 -0.08 0.33 342.51 -147.96 -506.48 947.34 -0.02 0.19 269.31 -125.27 -340.03 744.32 -0.02 0.18 367.66 -265.24 -407.43 825.1c-1.44,25.05 -2.87,50.08 -4.24,75.12l305.03 -98.63 -351.41 1060.86 280.24 109.31 -360.68 940.5c-27.62,232.45 -63.63,454.44 -112.14,662.38l219.82 -37.42 -277.13 256.21c-75.74,257.04 -175.68,487.58 -309.28,683.29z"></path> <g id="_1960540497424"> <path class="fil17 str3" d="M13559.49 16038.21l-523.57 -492.8 -445.83 252.36 -454.25 958.99 386.95 672.96 210.3 -311.25 -151.42 -420.6 260.78 -378.55 269.18 8.42c0,0 143.01,210.3 134.6,260.77 -8.41,50.48 -361.72,487.9 -361.72,487.9l715.03 -185.06 42.06 -277.6 -82.11 -575.54z"></path> <polygon class="fil18 str3" points="12527.23,15930.49 12219.96,16016.49 11891.89,16773.58 12245.19,17362.42 12329.32,17093.24 12153.49,16719.5 "></polygon> </g> <g id="_1960540833088"> <path class="fil17 str3" d="M15826.08 16523.6l-417.2 -585.57 -486.55 160.4 -632.83 851.77 248.03 735.59 267.05 -264.17 -66.33 -442.08 329.7 -320.31 262.35 60.84c0,0 99.17,234.19 81.06,282.04 -18.1,47.86 -450.06,407.84 -450.06,407.84l737.4 -41.82 95.49 -264.03 31.89 -580.5z"></path> <polygon class="fil18 str3" points="14922.33,16098.43 14543.98,16127.35 13985.45,16934.14 14260.72,17703.01 14421.38,17408.6 14303.12,16931.85 "></polygon> </g> <polygon class="fil0 str3" points="14949.35,16743.85 20879.58,17049.26 20859.82,17403.64 14823.35,17067.16 14789.07,16939.28 "></polygon> <path class="fil19" d="M14433.67 10355.86c189.77,689.35 101.58,1067.38 -31.27,1451.43 67.3,-28.14 128.26,-93.28 169.31,-237.04 47.22,141.8 32.18,276.3 -14.4,407.1 113.17,-71.33 201.08,-186.53 249.75,-369.91 68.97,232.91 41.5,558.28 -3.43,900.38 148.73,-252.46 246.77,-546.57 244.84,-922.78 64.98,176.11 152.84,286.92 260.63,341.02 -53.53,-166.76 -53.87,-313.9 20.66,-433.53 110.63,76.58 224.93,103.82 345.91,41.69 -103.56,-89.86 -164.79,-219.69 -175.96,-396.83 195.93,50.19 363.07,184.46 510.35,376.87 -34.73,-265.89 -140.1,-493.76 -351.53,-664.57l183.21 -149.79 -211.76 -282.83 253.95 50.22c-205.44,-132.34 -390.6,-314.04 -545.57,-569.11l-39.86 195.09 -142.63 -152.33c-81.27,-36.43 -350.78,-248.55 -527.32,-206.48 78.19,23.51 422.07,737.86 2.82,468.06 103.44,161.18 45.48,508.32 -197.7,153.34z"></path> <path class="fil20" d="M15332.77 9536.8l446.72 98.81 -296.49 51.4 257.15 212.09 -258.22 -41.03 256.89 319.5 -217.68 -50.62 108.12 342.8 -373.09 -375.45 77.21 248.82 -257.56 -391.25c0,0 -94.88,276.71 -90.93,241.14 3.96,-35.57 -43.47,-225.33 -43.47,-225.33 0,0 -264.95,-75.89 -249.13,-111.48 15.81,-35.58 -12.55,-159.72 -12.55,-159.72l32.38 -84.58 332.07 -51.39c0,0 -146.26,-75.11 -106.74,-75.11 39.53,0 229.3,27.67 229.3,27.67l-47.44 -134.41 213.46 158.14z"></path> <polygon class="fil21" points="13871.06,12367.38 13705.03,12818.04 13839.44,12746.88 13878.96,12952.45 14037.09,12873.38 14108.26,13102.67 14242.66,12944.55 14329.64,13055.23 14653.79,12818.04 14359.28,12952.44 14252.54,12851.64 14143.83,12960.35 14056.86,12770.6 13904.65,12879.31 13896.75,12644.09 13805.82,12689.56 "></polygon> <path class="fil22 str4" d="M6643.87 24142.72c0,-177.99 0,-357.51 0,-537.02 -436.71,-120.45 -789.26,-457.86 -1049.66,-1031.87 -133.22,-293.68 -231.42,-624.42 -295.71,-984.28 -64.95,-363.59 -95.95,-757.22 -95.95,-1174.55 0,-551.61 55.83,-1045.16 170.38,-1474.53 112.62,-422.2 283.95,-775.61 511.12,-1055.64 379.91,-435.76 809.83,-573.6 1294.45,-441.89 621.85,169.01 1126.03,606.84 1507.91,1320.32 154.71,279.25 269.96,564.71 346.62,861.54 76.09,294.66 115.53,603.77 115.53,929.05 0,319.91 -35.58,623.65 -101.82,911.41 -66.91,290.68 -170.37,568.48 -307.45,833.15 -246.76,499.45 -591.42,873.83 -1032.04,1120.1 0,165.7 0,331.42 0,496.36 -354.47,72.89 -708.92,150.36 -1063.38,227.85zm39.17 -3152.34c329,3.08 659.95,6.14 990.91,10.74 0,212.51 0,424.24 0,636.75 217.37,-289.22 327.05,-643.66 327.05,-1071.74 0,-344.47 -82.26,-647.5 -244.79,-916.01 -164.51,-275.42 -356.38,-433.85 -579.67,-466.45 -223.2,-32.6 -417.12,77.49 -581.62,332.96 -162.55,262.37 -244.79,588.43 -244.79,976.61 0,494.84 111.62,891.47 332.91,1182.23 0,-227.85 0,-456.46 0,-685.09zm5647.82 -2552.41c0,482.55 0,965.1 0,1447.68 0,481.77 0,964.34 0,1446.12 0,510.18 -127.3,924.46 -385.79,1245.14 -256.55,325.28 -597.59,502.35 -1026.17,541.63 -425.25,38.97 -749.38,-87.95 -975.24,-394.34 -112.92,-153.16 -199.92,-347.49 -254.58,-582.28 -55,-236.25 -84.21,-511.72 -84.21,-825.48 0,-533.96 0,-1069.45 0,-1604.18 0,-534.73 0,-1070.23 0,-1604.94 372.08,64.44 746.12,118.91 1120.15,167.24 0,504.81 0,1009.61 0,1513.65 0,504.81 0,1008.84 0,1512.88 0,290.75 82.25,433.15 246.76,428.08 158.6,-4.9 238.91,-148.84 238.91,-431.92 0,-493.3 0,-986.59 0,-1479.12 0,-493.3 0,-986.6 0,-1479.89 372.08,35.28 746.11,67.51 1120.17,99.73zm3338.94 52.94c-178.2,328.35 -358.05,656.87 -534.62,982.75 -175.92,324.68 -354.45,643.67 -530.71,964.34 0,400.49 0,800.94 0,1200.65 0,400.46 0,800.93 0,1201.4 -374.03,4.6 -748.09,9.2 -1120.16,15.35 0,-403.55 0,-807.08 0,-1209.85 0,-402.77 0,-806.31 0,-1209.84 -180.16,-325.29 -360.66,-652.7 -538.55,-982.76 -178.51,-331.25 -358.37,-666.68 -536.57,-1008.07 377.96,21.47 757.87,39.12 1137.78,56.77 160.59,306.1 323.14,605.3 485.67,902.97 172.34,-296.9 346.62,-593.8 520.91,-890.7 372.09,2.3 744.18,-10.74 1116.25,-23.01zm109.66 4359.88c0,-471.81 0,-943.63 0,-1415.45 0,-471.81 1.98,-944.41 0,-1416.21l-6.35 -1510.58 273.79 -15.7 302.1 361.68 191.45 -389.99 2014 -174.77c-29.95,1072.08 -47.03,2117.68 -47.03,3190.06 0,501.74 0,1004.25 0,1505.98 -374.05,-24.55 -748.08,-47.56 -1120.17,-73.65 0,-481.02 0,-962.81 0,-1444.59 0,-481.8 0,-963.59 0,-1445.37 0,-270.82 -82.26,-403.99 -246.74,-397.4 -160.6,6.44 -240.88,143.46 -240.88,411.22 0,475.64 0,951.29 0,1426.95 0,475.64 0,951.29 0,1426.18 -374.04,-14.58 -748.07,-29.15 -1120.17,-38.36zm5959.2 -5117.86c-195.84,698.9 -391.03,1383.23 -587.5,2049.13 -191.27,648.28 -391.67,1282.73 -585.55,1904.92 385.79,11.51 771.59,28.38 1157.38,42.97 0,269.27 0,538.55 0,807.83 0,268.51 0,537.79 0,806.31 -949.79,-127.36 -1897.62,-236.3 -2845.45,-324.52 193.87,-556.97 389.25,-1124.2 581.63,-1703.91 195.36,-588.68 389.7,-1189.12 585.53,-1802.87 -411.25,32.99 -822.49,63.67 -1233.74,94.37 0,-229.39 0,-458.78 0,-688.17 0,-229.39 0,-458.77 0,-688.93 975.24,-138.85 1950.49,-306.1 2927.7,-497.13zm1738.99 2733.46c0,552.37 0,1104.74 0,1656.34 -107.71,-7.66 -215.41,-14.57 -321.16,-22.24 0,489.46 0,978.15 0,1466.08 -374.04,-61.38 -748.09,-121.99 -1120.17,-178.76 0,-605.3 0,-1212.14 0,-1817.45 0,-605.3 0,-1211.38 0,-1817.44 0,-350.6 31.66,-665.85 94,-947.47 62.98,-284.56 160.75,-535.06 285.92,-758.74 254.76,-455.28 610.4,-741.86 1069.24,-860.78 444,-115.07 771.3,-6.35 981.13,352.91 107.42,183.91 186.17,434.2 238.92,748 52.98,315.28 80.28,695.83 80.28,1137.73 0,740.32 0,1479.88 0,2219.45 0,739.56 0,1479.12 0,2218.68 -374.04,-69.81 -748.08,-139.63 -1120.16,-208.67 0,-663.61 0,-1327.99 0,-1992.37 0,-663.6 0,-1328.76 0,-1993.14 0,-244.73 -19.58,-411.2 -52.87,-501.73 -37.21,-88.23 -99.83,-127.69 -191.92,-115.84 -176.19,22.67 -264.37,243.2 -264.37,662.84 0,254.7 0,509.41 0,764.11 105.75,-3.83 213.45,-8.44 321.16,-11.51z"></path> <path class="fil23 str5" d="M5226.81 21030.21c-15.19,-184.89 -23.13,-375.79 -24.15,-572.02l1147.69 0c-0.15,11.64 -0.23,23.31 -0.23,35.05 0,194.28 17.22,373.43 51.52,536.97l-1174.83 0zm3920.61 -572.02c0.76,31.73 1.15,63.62 1.15,95.67 0,162.97 -9.24,321.75 -27.06,476.35l-1169.62 0c32.69,-144.01 49.11,-298.53 49.11,-464.08 0,-36.45 -0.94,-72.42 -2.79,-107.94l1149.21 0zm457.44 0l1120.16 0 0 572.02 -1120.16 0 0 -572.02zm1605.83 0l1120.16 0 0 572.02 -1120.16 0 0 -572.02zm2273.62 0l1120.16 0 0 572.02 -1120.16 0 0 -572.02zm2295.15 0l1120.17 0 0 572.02 -1120.17 0 0 -572.02zm1607.79 0l1120.17 0 0 572.02 -1120.17 0 0 -572.02zm2353.28 0l1206.97 0c-58.79,191.86 -117.91,382.52 -176.93,572.02l-1217.05 0c62.37,-189.43 124.68,-380.09 187.01,-572.02zm2295.79 0l1120.16 0 0 19.71c105.76,-3.84 213.47,-8.44 321.17,-11.51l0 563.82 -1441.33 0 0 -572.02zm1629.33 0l1120.17 0 0 572.02 -1120.17 0 0 -572.02zm-15991.7 572.02l-990.91 0 0 -39.83c329,3.07 659.96,6.14 990.91,10.74l0 29.09z"></path> <path class="fil24 str5" d="M6643.87 24142.72c0,-177.98 0,-357.51 0,-537.02 -436.71,-120.45 -789.27,-457.86 -1049.66,-1031.86 -133.23,-293.69 -231.42,-624.43 -295.71,-984.29 -47.5,-265.88 -76.83,-547.83 -89.18,-843.37l1151.26 0c32.41,378.68 140.25,689.89 322.46,929.29 0,-227.85 0,-456.47 0,-685.09 329,3.07 659.96,6.14 990.91,10.74 0,212.51 0,424.25 0,636.75 186.13,-247.65 293.28,-543.12 320.24,-891.69l1150.04 0c-11.33,249.93 -44.65,489.58 -97.49,719.08 -66.91,290.69 -173.66,566.81 -307.46,833.16 -250.04,497.78 -591.41,873.82 -1032.03,1120.09 0,165.7 0,331.41 0,496.36 -354.46,72.88 -708.92,150.37 -1063.38,227.85zm5686.98 -3396.54l0 585.59c0,510.18 -129.01,923.08 -385.79,1245.14 -258.26,323.91 -597.57,502.35 -1026.16,541.62 -425.25,38.97 -749.38,-87.95 -975.24,-394.32 -112.92,-153.17 -199.93,-347.5 -254.59,-582.3 -55,-236.24 -84.21,-511.71 -84.21,-825.48l0 -570.25 1120.16 0 0 554.91c0,290.76 82.25,433.15 246.75,428.08 158.61,-4.9 238.92,-148.83 238.92,-431.92l0 -551.07 1120.16 0zm2273.62 0l0 892.47c0,400.46 0,800.93 0,1201.4 -374.04,4.61 -748.08,9.21 -1120.16,15.34 0,-403.54 0,-807.07 0,-1209.84l0 -899.37 1120.16 0zm1174.99 2104.61c0,-471.81 0,-943.63 0,-1415.45l0 -689.16 1120.17 0 0 716.78c0,475.65 0,951.31 0,1426.19 -374.04,-14.58 -748.08,-29.15 -1120.17,-38.36zm2727.96 -2104.61l0 733.66c0,501.73 0,1004.24 0,1505.97 -374.05,-24.54 -748.08,-47.56 -1120.17,-73.65 0,-481.02 0,-962.8 0,-1444.6l0 -721.38 1120.17 0zm2351.36 0c-98.05,316.79 -196.42,630.32 -293.16,940.8 385.79,11.51 771.58,28.38 1157.37,42.96 0,269.28 0,538.56 0,807.84 0,268.52 0,537.79 0,806.31 -949.79,-127.35 -1897.62,-236.29 -2845.45,-324.52 193.87,-556.97 389.24,-1124.19 581.63,-1703.91 62.58,-188.6 125.07,-378.4 187.53,-569.48l1212.08 0zm2618.87 0l0 1376.55c-107.7,-7.67 -215.41,-14.57 -321.17,-22.24 0,489.46 0,978.15 0,1466.08 -374.03,-61.38 -748.08,-121.98 -1120.16,-178.75 0,-605.31 0,-1212.15 0,-1817.45l0 -824.19 1441.33 0zm1308.17 0l0 897.84c0,739.56 0,1479.12 0,2218.68 -374.05,-69.82 -748.09,-139.63 -1120.17,-208.67 0,-663.62 0,-1327.99 0,-1992.37l0 -915.48 1120.17 0z"></path> <path class="fil25" d="M5386.71 20214.16c29.08,-1422.96 823.7,-2821.82 1859.06,-2506.79 -924.04,-94.53 -1689.41,1081.35 -1859.06,2506.79z"></path> <polygon class="fil25" points="10356.56,18436.25 9767.72,18335.31 9776.13,20076.6 9868.66,18478.32 "></polygon> <polygon class="fil25" points="13338.61,18647.89 12925.99,18685.4 13363.42,19745.32 12774.57,18643.34 "></polygon> <g id="_1960540833328"> <g style="clip-path:url(#id0)"> <image x="4643.33" y="11355.67" width="20756.51" height="29091.54"></image> </g> <path class="fil26 str6" d="M6643.02 24143.88c0,-178.05 0,-357.63 0,-537.21 -436.85,-120.49 -789.53,-458.01 -1050.01,-1032.21 -133.28,-293.78 -231.5,-624.64 -295.81,-984.62 -47.52,-265.97 -76.87,-548.02 -89.21,-843.65l1151.64 0c32.43,378.8 140.31,690.11 322.58,929.6 0,-227.93 0,-456.62 0,-685.32 329.11,3.07 660.18,6.14 991.25,10.74 0,212.58 0,424.39 0,636.97 186.19,-247.74 293.38,-543.31 320.35,-891.99l1150.42 0c-11.33,250 -44.66,489.74 -97.52,719.32 -66.94,290.78 -173.72,567 -307.56,833.44 -250.13,497.95 -591.62,874.12 -1032.39,1120.47 0,165.76 0,331.53 0,496.53 -354.58,72.91 -709.16,150.42 -1063.74,227.93zm5688.92 -3397.69l0 585.79c0,510.35 -129.06,923.39 -385.92,1245.55 -258.36,324.03 -597.78,502.53 -1026.51,541.81 -425.4,38.99 -749.64,-87.97 -975.58,-394.46 -112.95,-153.22 -199.99,-347.61 -254.67,-582.49 -55.02,-236.32 -84.24,-511.88 -84.24,-825.76l0 -570.44 1120.55 0 0 555.09c0,290.86 82.27,433.3 246.83,428.23 158.66,-4.9 239,-148.89 239,-432.07l0 -551.25 1120.54 0zm2274.39 0l0 892.76c0,400.6 0,801.21 0,1201.81 -374.16,4.61 -748.33,9.22 -1120.54,15.35 0,-403.67 0,-807.34 0,-1210.25l0 -899.67 1120.54 0zm1175.4 2105.32c0,-471.98 0,-943.95 0,-1415.93l0 -689.39 1120.54 0 0 717.02c0,475.81 0,951.63 0,1426.67 -374.17,-14.58 -748.33,-29.16 -1120.54,-38.37zm2728.88 -2105.32l0 733.9c0,501.9 0,1004.58 0,1506.49 -374.17,-24.56 -748.34,-47.58 -1120.55,-73.68 0,-481.18 0,-963.13 0,-1445.09l0 -721.62 1120.55 0zm2352.16 0c-98.08,316.89 -196.48,630.53 -293.26,941.11 385.92,11.52 771.84,28.4 1157.76,42.98 0,269.37 0,538.74 0,808.12 0,268.6 0,537.97 0,806.57 -950.11,-127.39 -1898.26,-236.37 -2846.41,-324.63 193.93,-557.15 389.37,-1124.57 581.82,-1704.48 62.61,-188.66 125.11,-378.54 187.6,-569.67l1212.49 0zm2619.76 0l0 1377.02c-107.74,-7.68 -215.49,-14.59 -321.28,-22.26 0,489.63 0,978.49 0,1466.58 -374.16,-61.4 -748.33,-122.02 -1120.54,-178.81 0,-605.52 0,-1212.56 0,-1818.07l0 -824.46 1441.82 0zm1308.61 0l0 898.14c0,739.81 0,1479.62 0,2219.44 -374.17,-69.85 -748.34,-139.68 -1120.55,-208.75 0,-663.84 0,-1328.44 0,-1993.04l0 -915.79 1120.55 0z"></path> </g> <polygon class="fil21" points="13612.85,13309.25 13644.58,13750.42 13782.81,13624.72 13892.58,13857.28 14056.61,13714.93 14211.28,13966.06 14322.95,13736.88 14460.24,13842.04 14729.8,13640.38 14464.14,13710.67 14306.36,13623.3 14210.17,13785.84 14048.77,13586.58 13900.83,13762.4 13819.63,13484.89 13725.31,13566.76 "></polygon> <polygon class="fil21" points="14777.86,14222.26 14963.08,14556.38 15125.75,14437.51 15359.66,14687.03 15569.82,14491.69 15807.46,14694.58 15934.27,14469.6 16285.4,14554.55 16338.67,13967.85 16181.34,14347.15 15874.8,14277.25 15732.47,14466.93 15581.2,14209.49 15339.26,14488.47 15115.26,14245.49 15029.31,14387.63 "></polygon> <polygon class="fil21" points="13839.23,15164.12 14024.44,15498.24 14187.11,15379.37 14421.02,15628.89 14631.19,15433.54 14777.88,15608.76 14952.15,15360.06 15101.65,15571.52 15435.6,15087.6 15124.09,15399.68 14983.6,15159.78 14759.56,15333.44 14622.8,15032.75 14400.63,15430.32 14176.62,15187.35 14051.14,15337.4 "></polygon> <polygon class="fil21" points="14765.66,13040.91 14900.92,13443.18 14999.21,13293.26 15156.96,13483 15275.23,13311.42 15479.14,13507.65 15527.94,13267.95 15680.71,13332.74 15882.8,13080.74 15652.83,13209.75 15485.29,13166.4 15434.9,13340.48 15237.17,13194.05 15141.87,13392.88 14999.9,13154.52 14931.9,13253.2 "></polygon> <polygon class="fil21" points="14524.12,14323.22 14273.96,14666.06 14225.41,14493.49 14081.07,14646.65 13956.74,14427.65 13786.2,14604.73 13728.86,14310.07 13563.67,14373.27 13446.88,14024.66 13623.36,14256.48 13756.64,14182.61 13827.36,14434.93 13988.85,14287.67 14067.26,14490.16 14227.03,14333.31 14301.65,14475.55 "></polygon> <path class="fil27" d="M14132.57 9477.9c-543.64,574.47 157.04,-102.73 438.66,316.2 55.46,83.72 155.91,124.52 327.31,97.52 -212.53,-124.69 -165.2,-232.15 -92.98,-176.07l349.09 201.89 -187.17 -248.16 218.72 130.39 -168.25 -182.97 262.87 100.94 -172.44 -182.96 239.75 115.67 -134.6 -214.5 214.5 75.7 -376.82 -215.34c-82.19,-98.12 77.68,-313.95 280.12,-384.01 -294.17,-112.54 -900.37,274.46 -1198.76,565.7z"></path> <path class="fil0" d="M14399.72 9362.21c94.09,-135.95 346.83,-283.49 437.42,-71.5 21.7,42.49 11.25,91.41 -23.13,145.11 -194.18,308.95 -483.61,86.17 -414.29,-73.61z"></path> <path class="fil28" d="M14489.21 9304.91c-91.92,182.15 99.82,264.85 226.31,162.09l112.68 -121.57c-37.6,96.21 -96.56,192.74 -221.38,223.37 -169.15,17.57 -254.51,-207.29 -117.61,-263.89z"></path> <g id="_1960540900048"> <path class="fil29 str7" d="M9422.33 12037.57c969.9,-909.39 2299.54,-1788.1 3709.72,-2607.75 297.93,54.69 614.78,-231.33 849.62,-100.94 -1438.61,601.44 -2963.68,1524.01 -4559.34,2708.69z"></path> <path class="fil27" d="M9347.89 12106.66c1183.93,-533.27 2994.78,-1692.06 4116.5,-2048.41 214.74,-53.63 193.51,-456.87 277.14,-619.76 -1283.18,413.89 -2767.16,1333.15 -4393.64,2668.17z"></path> </g> <g id="_1960540900816"> <path class="fil10" d="M3833.33 15042.95l5218.44 377.56c518.9,37.54 913.83,494.06 876.29,1012.97l-29.54 408.36c-37.53,518.91 -494.08,913.84 -1012.99,876.29l-5218.44 -377.55c-518.9,-37.54 -913.83,-494.08 -876.29,-1012.98l29.54 -408.35c37.53,-518.91 494.08,-913.85 1012.99,-876.3z"></path> </g> <rect class="fil30" transform="matrix(0.792767 0.0573572 -0.0382511 0.528691 3632.56 15834.5)" width="6942.67" height="1312.34" rx="270" ry="270"></rect> <polygon class="fil31" points="8802.74,16425.17 3873.29,16108.84 3740.57,16324.25 3774.15,15997.24 8910.44,16321.08 8834.91,16427.35 "></polygon> <g id="_1960540899808"> <path class="fil10" d="M20401.19 15987.04l5225.4 264.61c521.09,26.39 924.39,472.71 898,993.8l-20.71 408.9c-26.39,521.08 -472.72,924.38 -993.8,897.99l-5225.39 -264.61c-521.09,-26.39 -924.39,-472.73 -898,-993.81l20.71 -408.9c26.39,-521.08 472.71,-924.37 993.79,-897.98z"></path> </g> <rect class="fil30" transform="matrix(0.793822 0.0401992 -0.0268086 0.529394 20217.6 16782.8)" width="6942.67" height="1312.34" rx="270" ry="270"></rect> <polygon class="fil31" points="20253.87,17340.67 20566.05,16996.43 25477.01,17247.98 20371.62,16881.57 "></polygon> <g id="_1960540899232"> <polygon class="fil10" points="14211.12,16682.27 14011.88,17013.78 12625.19,16933.35 12527.97,16697.9 12628.86,16596.37 "></polygon> </g> <polygon class="fil0" points="14091.23,16745.86 12656.4,16667.97 12610.44,16714.22 12673.12,16866.01 13973.68,16941.45 "></polygon> <g id="_1960540898032"> <polygon class="fil10" points="11949.2,16760.49 11987.2,16900.71 9368.68,16748.82 9418.02,16419.65 12024.96,16561.16 "></polygon> </g> <polygon class="fil0" points="11925.48,16625.86 9477.81,16493 9449.27,16683.38 11894.21,16825.2 11875.69,16756.87 "></polygon> <path class="fil32" d="M11801.79 25399.71c-11.01,38.51 -218.8,598.04 -218.8,598.04l702.32 -548.96c0,0 -487.79,213.41 -487.79,180.41 0,-33.01 4.27,-229.49 4.27,-229.49z"></path> <polygon class="fil32" points="11182.63,24835.39 10774.37,25392.66 11632.49,25046.11 11071.41,25145.12 "></polygon> <polygon class="fil32" points="12268.52,26111.07 12122.07,26751.36 12760.17,26052.75 12303.6,26393.81 "></polygon> <polygon class="fil32" points="13073.7,26525.84 13024.2,27119.91 13618.28,26443.32 13172.72,26745.86 "></polygon> <polygon class="fil32" points="14184.9,27163.93 14432.43,27884.53 14795.49,26773.37 14454.43,27405.97 "></polygon> <polygon class="fil32" points="15282.54,26612.43 15582.1,27218.94 15642.61,26047.26 15499.59,26784.37 "></polygon> </g> </g> </svg> 